<svg id="Layer_1" data-name="Layer 1" xmlns="http://www.w3.org/2000/svg" viewBox="0 0 36 36"><path d="M24,42a17.359,17.359,0,0,1-12.75-5.25A17.359,17.359,0,0,1,6,24a17.359,17.359,0,0,1,5.25-12.75A17.359,17.359,0,0,1,24,6q.4,0,.85.025T26,6.1a10.927,10.927,0,0,0-2.8,3.95,12.508,12.508,0,0,0-1,4.95,10.415,10.415,0,0,0,3.15,7.65A10.415,10.415,0,0,0,33,25.8a13.388,13.388,0,0,0,4.95-.925A11.057,11.057,0,0,0,41.9,22.3q.05.6.075.975T42,24a17.359,17.359,0,0,1-5.25,12.75A17.359,17.359,0,0,1,24,42Zm0-3a14.383,14.383,0,0,0,9.5-3.375A14.17,14.17,0,0,0,38.55,27.7a12.457,12.457,0,0,1-2.675.825A15.163,15.163,0,0,1,33,28.8a13.31,13.31,0,0,1-9.775-4.025A13.31,13.31,0,0,1,19.2,15a14.41,14.41,0,0,1,.25-2.575,18.846,18.846,0,0,1,.9-3.125,15.228,15.228,0,0,0-8.125,5.475A14.606,14.606,0,0,0,9,24a14.464,14.464,0,0,0,4.375,10.625A14.464,14.464,0,0,0,24,39Z" transform="translate(-6 -6)"/></svg>