<?xml version="1.0" standalone="no"?>
<!DOCTYPE svg PUBLIC "-//W3C//DTD SVG 20010904//EN"
 "http://www.w3.org/TR/2001/REC-SVG-20010904/DTD/svg10.dtd">
<svg version="1.0" xmlns="http://www.w3.org/2000/svg"
 width="256.000000pt" height="256.000000pt" viewBox="0 0 256.000000 256.000000"
 preserveAspectRatio="xMidYMid meet">

<g transform="translate(0.000000,256.000000) scale(0.100000,-0.100000)"
fill="#000000" stroke="none">
<path d="M1100 2545 c-566 -79 -1008 -525 -1085 -1095 -18 -132 -18 -208 0
-340 58 -435 329 -803 728 -990 292 -137 652 -155 957 -48 572 201 927 774
847 1368 -28 206 -90 376 -200 542 -272 414 -754 632 -1247 563z m480 -578 c0
-206 80 -295 276 -305 l94 -5 0 -503 c0 -331 -4 -512 -11 -531 -13 -34 -55
-80 -91 -99 -27 -14 -158 -20 -158 -7 0 18 66 73 88 73 34 0 60 17 77 50 13
25 15 95 15 460 l0 430 -532 -2 -533 -3 -3 -395 c-2 -217 0 -415 3 -439 5 -30
16 -54 35 -73 l28 -28 169 0 169 0 39 -40 39 -40 -200 -2 c-111 -2 -214 1
-234 7 -46 13 -106 74 -119 122 -15 52 -15 1224 -1 1275 14 50 55 97 105 119
36 17 72 19 393 19 l352 0 0 -83z m287 -245 c-101 -4 -118 0 -162 40 -56 49
-65 74 -65 187 l0 100 154 -162 155 -162 -82 -3z m-267 -922 l0 -160 66 0 65
0 -122 -140 c-67 -78 -126 -139 -131 -138 -5 2 -62 64 -127 138 l-118 135 63
3 64 3 0 159 0 160 120 0 120 0 0 -160z"/>
<path d="M870 1785 l0 -105 25 0 c23 0 25 4 25 40 l0 40 40 0 c47 0 80 27 80
65 0 45 -32 65 -105 65 l-65 0 0 -105z m104 69 c9 -3 16 -16 16 -29 0 -23 -17
-35 -51 -35 -15 0 -19 7 -19 35 0 36 15 44 54 29z"/>
<path d="M1070 1784 l0 -106 65 4 c50 3 70 9 89 27 29 28 38 67 25 115 -14 50
-42 66 -116 66 l-63 0 0 -106z m124 50 c21 -20 20 -73 -1 -96 -9 -10 -29 -18
-45 -18 -28 0 -28 0 -28 65 l0 65 29 0 c16 0 37 -7 45 -16z"/>
<path d="M1290 1785 c0 -98 1 -105 20 -105 17 0 20 7 20 45 l0 45 45 0 c38 0
45 3 45 20 0 17 -7 20 -45 20 -38 0 -45 3 -45 19 0 17 8 20 52 23 41 2 54 7
56 21 3 15 -6 17 -72 17 l-76 0 0 -105z"/>
</g>
</svg>
