<svg id="Layer_2" data-name="Layer 2" xmlns="http://www.w3.org/2000/svg" width="1755.977" height="1080" viewBox="0 0 1755.977 1080"><defs><style>.cls-1{fill:aqua;}</style></defs><path class="cls-1" d="M1195.5,1079.5c37.92-35.12,81.26-87.4,96-158a245.219,245.219,0,0,0,4.76-35.97c10.58-181.66-177.56-340.39-126.76-400.03,41.57-48.81,200.24,35,261-25,58.35-57.63,6.62-136.12,64-209,49.34-62.66,105.75-31.14,147.25-31.09,12.01.02,22.77-2.6,31.75-10.91,24.48-22.64,34.03-55.03,29-104-.06-.58-.11-1.16-.16-1.74-3.25-40.477,25.766-77.276,53.637-103.76H0V1080"/></svg>