<svg id="Layer_1" data-name="Layer 1" xmlns="http://www.w3.org/2000/svg" viewBox="0 0 44 44">
  <defs>
    <style>
      .cls-1 {
        fill: #fff;
      }
    </style>
  </defs>
  <path class="cls-1" d="M24,31a7,7,0,0,0,7-7,7,7,0,0,0-7-7,7,7,0,0,0-7,7,7,7,0,0,0,7,7Zm0,3A9.987,9.987,0,0,1,14,24,9.987,9.987,0,0,1,24,14,9.987,9.987,0,0,1,34,24,9.987,9.987,0,0,1,24,34ZM3.5,25.5a1.5,1.5,0,1,1,0-3h5a1.5,1.5,0,1,1,0,3Zm36,0a1.5,1.5,0,1,1,0-3h5a1.5,1.5,0,1,1,0,3ZM24,10a1.454,1.454,0,0,1-1.5-1.5v-5a1.5,1.5,0,1,1,3,0v5A1.454,1.454,0,0,1,24,10Zm0,36a1.454,1.454,0,0,1-1.5-1.5v-5a1.5,1.5,0,1,1,3,0v5A1.454,1.454,0,0,1,24,46ZM12,14.1,9.15,11.3a1.382,1.382,0,0,1-.425-1.075A1.668,1.668,0,0,1,9.15,9.15a1.509,1.509,0,0,1,2.15,0L14.1,12a1.53,1.53,0,0,1,.4,1.05,1.356,1.356,0,0,1-.4,1,1.31,1.31,0,0,1-1.025.45A1.561,1.561,0,0,1,12,14.1ZM36.7,38.85,33.9,36a1.561,1.561,0,0,1-.4-1.075,1.31,1.31,0,0,1,.45-1.025,1.283,1.283,0,0,1,1-.45A1.439,1.439,0,0,1,36,33.9l2.85,2.8a1.382,1.382,0,0,1,.425,1.075,1.668,1.668,0,0,1-.425,1.075,1.509,1.509,0,0,1-2.15,0ZM33.9,14.1a1.45,1.45,0,0,1,0-2.1l2.8-2.85a1.382,1.382,0,0,1,1.075-.425,1.668,1.668,0,0,1,1.075.425,1.509,1.509,0,0,1,0,2.15L36,14.1a1.386,1.386,0,0,1-1.025.4A1.561,1.561,0,0,1,33.9,14.1ZM9.15,38.85a1.509,1.509,0,0,1,0-2.15L12,33.9A1.485,1.485,0,1,1,14.1,36l-2.8,2.85a1.382,1.382,0,0,1-1.075.425A1.668,1.668,0,0,1,9.15,38.85Z" transform="translate(-2 -2)" />
</svg>