<svg xmlns="http://www.w3.org/2000/svg" viewBox="0 0 448.453 461.637"><defs><style>.cls-1{fill:#f5f5f5;}.cls-2{fill:#e6e6e6;}.cls-3{fill:#37474f;}.cls-4{fill:#455a64;}.cls-22,.cls-34,.cls-5{fill:#27debf;}.cls-17,.cls-18,.cls-22,.cls-6{opacity:0.6;}.cls-14,.cls-15,.cls-7{opacity:0.5;}.cls-29,.cls-8{opacity:0.4;}.cls-9{opacity:0.15;}.cls-10,.cls-16{fill:#263238;}.cls-11{fill:#e0e0e0;}.cls-12{fill:#ebebeb;}.cls-13,.cls-14,.cls-17,.cls-19,.cls-33{fill:#fff;}.cls-16,.cls-21{opacity:0.9;}.cls-19,.cls-20{opacity:0.8;}.cls-23{opacity:0.7;}.cls-24,.cls-35{opacity:0.3;}.cls-25{opacity:0.25;}.cls-26,.cls-34{opacity:0.1;}.cls-27{fill:#ffa8a7;}.cls-28{fill:#fafafa;}.cls-30{fill:#f28f8f;}.cls-31,.cls-32{fill:none;stroke:#263238;stroke-miterlimit:10;}.cls-31{stroke-width:1.207px;}.cls-32{stroke-width:1.027px;}.cls-33{opacity:0.75;}.cls-36{opacity:0.2;}.cls-37{fill:#f0f0f0;}</style></defs><g id="Floor"><ellipse id="Floor-2" data-name="Floor" class="cls-1" cx="224.226" cy="337.487" rx="224.226" ry="124.15"/></g><g id="Shadows"><path id="Shadow" class="cls-2" d="M451.688,343.149,326.7,415.351a3.716,3.716,0,0,1-3.359,0L143.117,311.3a1.024,1.024,0,0,1,0-1.939l124.992-72.2a3.713,3.713,0,0,1,3.358,0L451.688,341.21A1.024,1.024,0,0,1,451.688,343.149Z" transform="translate(-25.633 -24.875)"/><ellipse id="Shadow-2" data-name="Shadow" class="cls-2" cx="135.596" cy="387.519" rx="75.083" ry="43.349"/><ellipse id="Shadow-3" data-name="Shadow" class="cls-2" cx="227.019" cy="337.26" rx="59.1" ry="34.121"/><ellipse id="Shadow-4" data-name="Shadow" class="cls-2" cx="358.454" cy="382.99" rx="37.097" ry="21.418"/></g><g id="Desk"><g id="Desk-2" data-name="Desk"><g id="Table"><path class="cls-3" d="M329.42,286.364V397.308a2.475,2.475,0,0,1-1.119,1.939l-2.381,1.374a2.474,2.474,0,0,1-2.239,0l-2.381-1.374a2.475,2.475,0,0,1-1.119-1.939V286.364c0-.713.5-1,1.119-.646l2.381,1.374a2.474,2.474,0,0,0,2.239,0l2.381-1.374C328.919,285.361,329.42,285.651,329.42,286.364Z" transform="translate(-25.633 -24.875)"/><path class="cls-4" d="M323.681,400.621l-2.381-1.374a2.475,2.475,0,0,1-1.119-1.939V286.364c0-.713.5-1,1.119-.646l2.381,1.374a2.475,2.475,0,0,1,1.119,1.939V399.975C324.8,400.689,324.3,400.978,323.681,400.621Z" transform="translate(-25.633 -24.875)"/><path class="cls-3" d="M430.934,227.721V338.664a2.476,2.476,0,0,1-1.12,1.939l-2.381,1.374a2.474,2.474,0,0,1-2.239,0l-2.38-1.374a2.473,2.473,0,0,1-1.12-1.939V227.721c0-.714.5-1,1.12-.647l2.38,1.375a2.474,2.474,0,0,0,2.239,0l2.381-1.375C430.432,226.717,430.934,227.007,430.934,227.721Z" transform="translate(-25.633 -24.875)"/><path class="cls-4" d="M425.194,341.977l-2.38-1.374a2.473,2.473,0,0,1-1.12-1.939V227.721c0-.714.5-1,1.12-.647l2.38,1.375a2.475,2.475,0,0,1,1.12,1.938V341.331C426.313,342.045,425.812,342.334,425.194,341.977Z" transform="translate(-25.633 -24.875)"/><path class="cls-3" d="M192.708,207.473V318.416a2.475,2.475,0,0,1-1.119,1.939l-2.382,1.375a2.477,2.477,0,0,1-2.239,0l-2.38-1.374a2.476,2.476,0,0,1-1.12-1.939V207.473c0-.714.5-1,1.12-.647l2.381,1.375a2.48,2.48,0,0,0,2.239,0l2.381-1.375C192.207,206.47,192.708,206.759,192.708,207.473Z" transform="translate(-25.633 -24.875)"/><path class="cls-4" d="M186.968,321.729l-2.38-1.374a2.476,2.476,0,0,1-1.12-1.939V207.473c0-.714.5-1,1.12-.647l2.381,1.375a2.473,2.473,0,0,1,1.119,1.939V321.083C188.088,321.8,187.587,322.086,186.968,321.729Z" transform="translate(-25.633 -24.875)"/><path class="cls-5" d="M453.021,235.612V234.8a4.5,4.5,0,0,0-2.038-3.529L271.968,128.017a4.508,4.508,0,0,0-4.075,0l-110.128,63.6a4.5,4.5,0,0,0-2.037,3.529v.812a4.505,4.505,0,0,0,2.037,3.53L336.781,302.745a4.5,4.5,0,0,0,4.075,0l110.127-63.6A4.506,4.506,0,0,0,453.021,235.612Z" transform="translate(-25.633 -24.875)"/><path class="cls-6" d="M453.021,235.612V234.8a4.5,4.5,0,0,0-2.038-3.529L271.968,128.017a4.508,4.508,0,0,0-4.075,0l-110.128,63.6a4.5,4.5,0,0,0-2.037,3.529v.812a4.505,4.505,0,0,0,2.037,3.53L336.781,302.745a4.5,4.5,0,0,0,4.075,0l110.127-63.6A4.506,4.506,0,0,0,453.021,235.612Z" transform="translate(-25.633 -24.875)"/><path class="cls-5" d="M338.819,297.718v5.521a4.313,4.313,0,0,0,2.039-.486L450.98,239.147a4.507,4.507,0,0,0,2.039-3.53V234.8a4.5,4.5,0,0,0-1.663-3.263c.738.628.613,1.506-.376,2.086L340.858,297.231A4.122,4.122,0,0,1,338.819,297.718Z" transform="translate(-25.633 -24.875)"/><path class="cls-7" d="M338.819,297.718v5.521a4.313,4.313,0,0,0,2.039-.486L450.98,239.147a4.507,4.507,0,0,0,2.039-3.53V234.8a4.5,4.5,0,0,0-1.663-3.263c.738.628.613,1.506-.376,2.086L340.858,297.231A4.122,4.122,0,0,1,338.819,297.718Z" transform="translate(-25.633 -24.875)"/><path class="cls-5" d="M450.983,233.624l-110.127,63.6a4.5,4.5,0,0,1-4.075,0L157.765,193.974a1.242,1.242,0,0,1,0-2.353l110.128-63.6a4.508,4.508,0,0,1,4.075,0L450.983,231.271A1.242,1.242,0,0,1,450.983,233.624Z" transform="translate(-25.633 -24.875)"/><path class="cls-8" d="M450.983,233.624l-110.127,63.6a4.5,4.5,0,0,1-4.075,0L157.765,193.974a1.242,1.242,0,0,1,0-2.353l110.128-63.6a4.508,4.508,0,0,1,4.075,0L450.983,231.271A1.242,1.242,0,0,1,450.983,233.624Z" transform="translate(-25.633 -24.875)"/></g><g id="Keyboard"><path id="Shadow-5" data-name="Shadow" class="cls-9" d="M325.29,232.235,299.2,247.343a3.233,3.233,0,0,1-2.924,0L219.19,202.9a.892.892,0,0,1,0-1.69l26.092-15.107a3.233,3.233,0,0,1,2.924,0l77.085,44.444A.892.892,0,0,1,325.29,232.235Z" transform="translate(-25.633 -24.875)"/><g id="Keyboard-2" data-name="Keyboard"><path class="cls-10" d="M220.77,198.534a1.028,1.028,0,0,1,.606-.845l24.513-14.15a3.227,3.227,0,0,1,2.923,0l74.8,43.255a1.026,1.026,0,0,1,.6.844v2.57a1.024,1.024,0,0,1-.607.844l-24.5,14.149a3.235,3.235,0,0,1-2.925,0l-74.8-43.185a1.033,1.033,0,0,1-.606-.841C220.769,200.866,220.77,198.839,220.77,198.534Z" transform="translate(-25.633 -24.875)"/><path class="cls-3" d="M299.106,242.566l24.5-14.085a.889.889,0,0,0,0-1.686l-74.8-43.255a3.227,3.227,0,0,0-2.923,0l-24.513,14.15a.891.891,0,0,0,0,1.688l74.8,43.186A3.241,3.241,0,0,0,299.106,242.566Z" transform="translate(-25.633 -24.875)"/><path class="cls-10" d="M297.738,242.913v2.629a3.029,3.029,0,0,0,1.373-.338L323.6,231.056a1.034,1.034,0,0,0,.608-.844v-2.578a1.036,1.036,0,0,1-.608.845L299.111,242.57A3.018,3.018,0,0,1,297.738,242.913Z" transform="translate(-25.633 -24.875)"/><path class="cls-5" d="M225.309,198.722a.039.039,0,0,1,.017-.031l2.426-1.4,3.291,1.9-2.44,1.447-3.288-1.9Zm3.8-2.192a.04.04,0,0,1,.017-.031l2.426-1.4,2.585,1.492-2.442,1.448-2.582-1.491Zm.8,4.847a.039.039,0,0,1,.017-.031l2.427-1.4,2.584,1.492-2.443,1.448-2.58-1.49Zm3-7.04a.044.044,0,0,1,.017-.032l2.426-1.4,4.175,2.411-2.441,1.449-4.173-2.41Zm.093,4.439a.038.038,0,0,1,.018-.031l2.425-1.4,2.054,1.185-2.442,1.449L233,198.794Zm.8,4.847a.042.042,0,0,1,.017-.031l2.426-1.4,2.585,1.492-2.442,1.447-2.58-1.49Zm2.559-2.906a.043.043,0,0,1,.019-.033l2.425-1.4,2.053,1.186-2.441,1.448-2.05-1.184Zm.346-8.572a.045.045,0,0,1,.017-.033l2.426-1.4,3.292,1.9L240,194.061l-3.288-1.9Zm.987,13.725a.037.037,0,0,1,.017-.031l2.425-1.4,18.678,10.783-2.444,1.448-18.673-10.781Zm.7-8.367a.042.042,0,0,1,.017-.033l2.426-1.4,2.052,1.186-2.441,1.448-2.05-1.184Zm1.331,5.153a.041.041,0,0,1,.017-.032l2.426-1.4,2.052,1.186-2.441,1.448-2.05-1.184Zm.783-12.7a.039.039,0,0,1,.017-.032l2.425-1.4L245,189.705l-2.44,1.449-2.051-1.184Zm.8,4.847a.037.037,0,0,1,.017-.031l2.426-1.4,2.054,1.186L243.355,196l-2.05-1.184Zm.447,4.644a.045.045,0,0,1,.017-.033l2.426-1.4,2.052,1.186-2.442,1.449-2.049-1.185Zm1.331,5.153a.044.044,0,0,1,.017-.032l2.426-1.4,2.052,1.186-2.443,1.448-2.048-1.184Zm.783-12.7a.041.041,0,0,1,.017-.032l2.425-1.4,2.053,1.185-2.441,1.448-2.051-1.183Zm.8,4.847a.04.04,0,0,1,.017-.031l2.426-1.4,2.054,1.186-2.442,1.448-2.051-1.184Zm.446,4.644a.042.042,0,0,1,.019-.032l2.425-1.4,2.053,1.186-2.443,1.449-2.049-1.185Zm0-14.092a.042.042,0,0,1,.018-.032l2.425-1.4,2.584,1.493-2.443,1.448-2.58-1.491Zm1.33,19.245a.041.041,0,0,1,.017-.032l2.425-1.4,2.052,1.186-2.44,1.448-2.051-1.184Zm.782-12.7a.039.039,0,0,1,.017-.032l2.425-1.4,2.053,1.185-2.441,1.448-2.05-1.183Zm.8,4.848a.038.038,0,0,1,.018-.032l2.425-1.4,2.054,1.186-2.442,1.448-2.051-1.184Zm.448,4.643a.041.041,0,0,1,.017-.032l2.426-1.4,2.052,1.186-2.443,1.448-2.048-1.184Zm1.331,5.153a.041.041,0,0,1,.017-.032l2.425-1.4,2.053,1.186-2.441,1.447-2.051-1.183Zm.662-18.095a.04.04,0,0,1,.017-.031l2.428-1.4,2.052,1.186-2.443,1.448-2.05-1.184Zm.118,5.392a.043.043,0,0,1,.019-.033l2.426-1.4,2.052,1.185-2.443,1.449-2.048-1.184Zm.8,4.847a.038.038,0,0,1,.017-.032l2.425-1.4,2.055,1.186-2.443,1.448-2.05-1.184Zm.445,4.643a.048.048,0,0,1,.019-.033l2.426-1.4,2.052,1.186-2.442,1.449-2.049-1.185Zm1.331,5.154a.042.042,0,0,1,.019-.032l2.426-1.4,2.052,1.186-2.443,1.448-2.048-1.184Zm.665-18.095a.04.04,0,0,1,.017-.033l2.425-1.4,2.054,1.186-2.442,1.448-2.051-1.184Zm.117,5.389a.036.036,0,0,1,.018-.03l2.427-1.4,2.052,1.186L256,198.914l-2.049-1.184Zm.8,4.849a.038.038,0,0,1,.017-.032l2.426-1.4,2.054,1.185-2.443,1.448-2.05-1.183Zm.445,4.643a.042.042,0,0,1,.018-.032l2.427-1.4,2.052,1.186-2.442,1.448-2.049-1.184Zm1.333,5.153a.04.04,0,0,1,.017-.031l2.426-1.4,2.052,1.186-2.441,1.447-2.05-1.183Zm.663-18.095a.041.041,0,0,1,.017-.032l2.425-1.4,2.055,1.186-2.443,1.448-2.05-1.184Zm.119,5.391a.04.04,0,0,1,.018-.032l2.425-1.4,2.053,1.186-2.443,1.448-2.049-1.184Zm.372,17.756a.037.037,0,0,1,.017-.031l2.426-1.4,2.583,1.492-2.443,1.449-2.58-1.49ZM258.1,204.5a.04.04,0,0,1,.017-.032l2.426-1.4,2.054,1.186-2.443,1.448-2.05-1.184Zm.446,4.642a.039.039,0,0,1,.017-.031l2.427-1.4,2.052,1.186-2.442,1.449-2.049-1.185Zm1.332,5.154a.042.042,0,0,1,.018-.032l2.425-1.4,2.052,1.186-2.442,1.448-2.049-1.184Zm.663-18.095a.037.037,0,0,1,.017-.031l2.426-1.4,2.054,1.186L262.6,197.4l-2.05-1.184Zm.118,5.392a.043.043,0,0,1,.019-.033l2.425-1.4,2.053,1.186-2.443,1.448-2.049-1.184Zm.8,4.847a.038.038,0,0,1,.018-.032l2.425-1.4,2.054,1.186-2.443,1.448-2.05-1.184Zm.1,13.215a.045.045,0,0,1,.019-.033l2.426-1.4,2.583,1.492-2.44,1.449-2.582-1.491Zm.345-8.572a.044.044,0,0,1,.019-.033l2.425-1.4,2.053,1.186-2.443,1.448-2.048-1.184Zm1.331,5.154a.043.043,0,0,1,.019-.033l2.425-1.4,2.053,1.186-2.441,1.447-2.05-1.183Zm.782-12.7a.04.04,0,0,1,.017-.031l2.428-1.4,2.052,1.185-2.443,1.449-2.048-1.184Zm.8,4.847a.037.037,0,0,1,.017-.031l2.425-1.4,2.053,1.186-2.441,1.447-2.051-1.183Zm.445,4.644a.044.044,0,0,1,.017-.032l2.428-1.4,2.052,1.186-2.443,1.449-2.048-1.185Zm.1-14.038a.04.04,0,0,1,.017-.031l2.426-1.4,2.054,1.186-2.443,1.448L265.369,199Zm.09,22.916a.042.042,0,0,1,.017-.033l2.425-1.4,2.586,1.492-2.443,1.448-2.582-1.49Zm1.144-3.726a.037.037,0,0,1,.017-.03l2.427-1.4,2.053,1.186-2.443,1.448-2.048-1.184Zm.782-12.7a.045.045,0,0,1,.019-.033l2.424-1.4,2.054,1.185-2.442,1.449-2.049-1.184Zm.8,4.847a.037.037,0,0,1,.017-.031l2.425-1.4,2.055,1.186-2.443,1.448-2.05-1.184Zm.445,4.643a.041.041,0,0,1,.018-.031l2.427-1.4,2.052,1.186-2.442,1.448-2.049-1.184Zm.1-14.037a.038.038,0,0,1,.018-.031l2.425-1.4,2.054,1.186-2.442,1.448-2.051-1.184Zm.621,23.222a.044.044,0,0,1,.017-.032l2.426-1.4,3.291,1.9-2.442,1.448-3.288-1.9Zm.613-4.03a.045.045,0,0,1,.019-.032l2.426-1.4,6.475,3.738-2.443,1.448-6.471-3.736Zm.783-12.706a.039.039,0,0,1,.017-.031l2.427-1.4,2.052,1.186-2.442,1.448-2.049-1.184Zm.8,4.849a.04.04,0,0,1,.017-.032l2.426-1.4,2.054,1.186-2.443,1.448-2.05-1.184Zm.446,4.642a.039.039,0,0,1,.017-.031l2.427-1.4,2.053,1.186-2.443,1.448-2.049-1.184Zm.1-14.036a.038.038,0,0,1,.017-.032l2.425-1.4,2.055,1.186-2.443,1.448-2.05-1.184Zm2.016,6.485a.037.037,0,0,1,.017-.031l2.427-1.4,2.053,1.186-2.443,1.448-2.048-1.184Zm.548,17.859a.038.038,0,0,1,.017-.03l2.428-1.4,2.052,1.186-2.443,1.449-2.048-1.185Zm.254-13.01a.04.04,0,0,1,.016-.032l2.426-1.4,2.052,1.186-2.44,1.447-2.051-1.183Zm.445,4.642a.035.035,0,0,1,.017-.029l2.427-1.4,1.876,1.083a1.266,1.266,0,0,0,.592.121,1.3,1.3,0,0,0,.62-.129l3.186-1.839,2.406,1.39-6.237,3.641-4.882-2.818Zm.1-14.037a.037.037,0,0,1,.017-.031l2.426-1.4,2.054,1.186-2.443,1.448-2.05-1.184Zm2.016,6.487a.04.04,0,0,1,.017-.031l2.426-1.4,2.054,1.186-2.443,1.448-2.048-1.184Zm.55,17.858a.038.038,0,0,1,.018-.031l2.425-1.4,2.052,1.187-2.442,1.448-2.049-1.185Zm.252-13.01a.038.038,0,0,1,.017-.032l2.425-1.4,2.053,1.186-2.443,1.448-2.049-1.183Zm2-8.55a.04.04,0,0,1,.017-.032l2.426-1.4,2.054,1.186-2.442,1.448-2.051-1.184Zm.554,5.641a.044.044,0,0,1,.018-.032l2.425-1.4,2.054,1.186-2.442,1.448-2.049-1.184Zm.549,17.859a.039.039,0,0,1,.019-.033l2.425-1.4,2.053,1.185-2.443,1.449-2.049-1.184Zm.437-4.133a.042.042,0,0,1,.018-.032l2.427-1.4,2.052,1.186-2.442,1.448-2.051-1.184Zm1.821-17.427a.038.038,0,0,1,.017-.032l2.425-1.4,2.052,1.186-2.44,1.448-2.051-1.184Zm.554,5.641a.037.037,0,0,1,.017-.031l2.425-1.4,3.646,2.1-2.443,1.448-3.64-2.1Zm1.256,18.267a.04.04,0,0,1,.017-.031l2.426-1.4,5.414,3.126-2.442,1.448-5.411-3.124Zm.6-12.806a.04.04,0,0,1,.018-.032l2.425-1.4,2.054,1.186-2.44,1.448-2.053-1.184Zm.945-9.162a.038.038,0,0,1,.017-.032l2.425-1.4,2.053,1.186-2.441,1.448-2.05-1.184Zm2.248,19.776a.045.045,0,0,1,.017-.033l2.426-1.4L293.734,231l-2.441,1.448-2.052-1.184Zm.168-8.674a.039.039,0,0,1,.017-.032l2.425-1.4,2.054,1.185-2.442,1.449-2.051-1.184Zm.438-4.132a.039.039,0,0,1,.017-.032l2.425-1.4,2.054,1.186-2.442,1.448-2.051-1.184Zm.506-5.03a.04.04,0,0,1,.017-.032l2.425-1.4,2.053,1.186-2.441,1.448-2.05-1.184Zm1.81,23.908a.042.042,0,0,1,.018-.032l2.425-1.4,2.055,1.185-2.443,1.448-2.051-1.184Zm.438-4.132a.04.04,0,0,1,.017-.032l2.426-1.4,2.054,1.186-2.443,1.448L292.6,233.2Zm.168-8.674a.039.039,0,0,1,.017-.032l2.426-1.4,2.054,1.186-2.443,1.448-2.05-1.184Zm.27,4.541a.044.044,0,0,1,.017-.032l2.426-1.4,2.052,1.186-2.441,1.449-2.05-1.184Zm.168-8.674a.041.041,0,0,1,.017-.032l2.425-1.4,2.055,1.186-2.443,1.448-2.05-1.184Zm1.249-4.6a.038.038,0,0,1,.017-.032l2.425-1.4,2.055,1.186-2.443,1.448-2.05-1.184Zm1.068,23.479a.041.041,0,0,1,.017-.032l6.223-3.593,2.055,1.186-6.239,3.642-2.053-1.185Zm.438-4.132a.042.042,0,0,1,.017-.033l2.425-1.4,2.054,1.186-2.442,1.449-2.051-1.184Zm.438-4.133a.037.037,0,0,1,.017-.031l2.425-1.4,2.052,1.186-2.44,1.449-2.051-1.184Zm.167-8.674a.044.044,0,0,1,.017-.032l2.426-1.4,2.054,1.186-2.443,1.448-2.05-1.184Zm.269,4.542a.037.037,0,0,1,.017-.031l2.427-1.4,2.052,1.186-2.442,1.448-2.049-1.184Zm.98-9.143a.037.037,0,0,1,.017-.031l2.426-1.4,2.054,1.186-2.443,1.448-2.05-1.184Zm1.944,15.215a.041.041,0,0,1,.017-.032l2.425-1.4,2.053,1.186-2.441,1.449-2.05-1.184Zm.436-4.132a.037.037,0,0,1,.017-.031l2.427-1.4,2.053,1.186L302.246,230l-2.048-1.184Zm.437-4.134a.041.041,0,0,1,.018-.031l2.425-1.4,2.054,1.185-2.442,1.448-2.049-1.184Zm.543-5.009a.037.037,0,0,1,.017-.031l2.426-1.4,2.054,1.186-2.443,1.448-2.05-1.184Zm1.944,15.215a.041.041,0,0,1,.017-.032l6.224-3.593,2.052,1.186-6.237,3.642-2.052-1.185Zm.436-4.133a.037.037,0,0,1,.017-.03l2.427-1.4,2.053,1.186-2.443,1.448-2.048-1.184Zm.438-4.133a.035.035,0,0,1,.017-.029l2.425-1.4,2.055,1.185-2.443,1.448L304,226.625Zm2.225-5.163a.038.038,0,0,1,.018-.032l1.03-.608,2.054,1.185-1.055.651-2.043-1.179Zm1.135,7.1a.044.044,0,0,1,.017-.031l2.426-1.4,2.054,1.185-2.443,1.448-2.048-1.184Zm2.226-5.163a.042.042,0,0,1,.017-.033l1.03-.607,2.054,1.186-1.055.65-2.043-1.179Zm1.134,7.1a.042.042,0,0,1,.017-.031l2.426-1.4,2.054,1.185-2.442,1.448-2.049-1.183Zm2.226-5.163a.042.042,0,0,1,.017-.033l1.03-.607,2.054,1.185-1.054.651-2.043-1.179Zm3.358,1.94a.044.044,0,0,1,.019-.033l1.03-.608,2.054,1.186-1.054.652-2.043-1.18Z" transform="translate(-25.633 -24.875)"/></g></g><g id="Device"><polygon id="Shadow-6" data-name="Shadow" class="cls-9" points="359.948 210.293 382.901 197.041 268.136 130.782 245.183 144.034 359.948 210.293"/><g id="Monitor"><path class="cls-2" d="M320.594,213.6l-16.387-9.475c-1.689-.975-2.533-2.253-2.534-3.531s-.007-2.28-.007-2.28l15.42-8.751a3.609,3.609,0,0,0,1.631-2.826v-20.2l28.621,16.539v20.2a3.6,3.6,0,0,1-1.631,2.825l-12.881,7.5A13.522,13.522,0,0,1,320.594,213.6Z" transform="translate(-25.633 -24.875)"/><path class="cls-11" d="M340.467,206.849v2.27l5.245-3.023a3.609,3.609,0,0,0,1.63-2.825v-20.2l-5.453-3.146c-.113,1.385-.236,2.816-.349,4.21l3.824,2.213v15.784a3.582,3.582,0,0,1-1.629,2.825Z" transform="translate(-25.633 -24.875)"/><path class="cls-1" d="M345.365,202.135a3.607,3.607,0,0,1-1.631,2.825l-10.9,6.357a13.526,13.526,0,0,1-12.235,0l-16.4-9.474c-3.378-1.95-3.379-5.112,0-7.062l10.911-6.362a3.607,3.607,0,0,0,1.632-2.826V169.809l28.622,16.539Z" transform="translate(-25.633 -24.875)"/><path class="cls-12" d="M311.789,190.341v0l3.322-1.918a3.607,3.607,0,0,0,1.632-2.826V169.809l28.622,16.539v15.787a3.607,3.607,0,0,1-1.631,2.825l-3.265,1.885Z" transform="translate(-25.633 -24.875)"/><path class="cls-12" d="M301.669,198.312v2.279c0,1.281.848,2.552,2.534,3.532l16.389,9.469a12.257,12.257,0,0,0,5.839,1.45v-2.269a12.28,12.28,0,0,1-5.839-1.45L304.2,201.844C302.517,200.874,301.669,199.593,301.669,198.312Z" transform="translate(-25.633 -24.875)"/><path class="cls-4" d="M391.32,223.93a4.371,4.371,0,0,1-3.951-.073l-110.689-63.9a4.505,4.505,0,0,1-2.038-3.531V59.537a3.83,3.83,0,0,1,5.864-3.386l110.687,63.9a4.506,4.506,0,0,1,2.039,3.531v96.884A4.37,4.37,0,0,1,391.32,223.93Z" transform="translate(-25.633 -24.875)"/><path class="cls-3" d="M387.368,223.855,276.68,159.95a4.507,4.507,0,0,1-2.039-3.532V59.534c0-1.3.913-1.827,2.039-1.177l110.687,63.905a4.506,4.506,0,0,1,2.039,3.531v96.884C389.407,223.978,388.494,224.505,387.368,223.855Z" transform="translate(-25.633 -24.875)"/><path class="cls-11" d="M387.668,224.259a3.811,3.811,0,0,0,5.566-3.541v-10.9l-3.824,2.213v10.9C389.41,224.118,388.657,224.654,387.668,224.259Z" transform="translate(-25.633 -24.875)"/><path class="cls-13" d="M389.407,212.032v10.9c0,1.3-.913,1.827-2.039,1.177L276.68,160.2a4.508,4.508,0,0,1-2.039-3.532v-10.9Z" transform="translate(-25.633 -24.875)"/><path class="cls-5" d="M385.582,203.743v-76.68a2.7,2.7,0,0,0-1.224-2.119L279.692,64.515c-.675-.39-1.223-.074-1.223.706l0,76.682a2.7,2.7,0,0,0,1.224,2.119l104.67,60.428C385.035,204.84,385.582,204.524,385.582,203.743Z" transform="translate(-25.633 -24.875)"/><path class="cls-14" d="M385.582,203.743v-76.68a2.7,2.7,0,0,0-1.224-2.119L279.692,64.515c-.675-.39-1.223-.074-1.223.706l0,76.682a2.7,2.7,0,0,0,1.224,2.119l104.67,60.428C385.035,204.84,385.582,204.524,385.582,203.743Z" transform="translate(-25.633 -24.875)"/><path class="cls-4" d="M332.025,183.07a4.227,4.227,0,0,1,1.914,3.313c0,1.22-.857,1.715-1.914,1.1a4.231,4.231,0,0,1-1.913-3.314C330.112,182.954,330.969,182.459,332.025,183.07Z" transform="translate(-25.633 -24.875)"/><path class="cls-10" d="M388.808,123.776a4.33,4.33,0,0,1,.6,2.016v86.243l3.824-2.213V123.588a4.222,4.222,0,0,0-.6-2.015Z" transform="translate(-25.633 -24.875)"/></g></g><g id="Window"><g id="Window-2" data-name="Window"><path class="cls-4" d="M292.752,39.532a.788.788,0,0,1,.032-.179.043.043,0,0,1,.007-.039.685.685,0,0,1,.044-.173.89.89,0,0,1,.116-.25.324.324,0,0,1,.064-.1.329.329,0,0,1,.057-.071.616.616,0,0,1,.128-.127l.013-.013a.845.845,0,0,1,.167-.1,1.419,1.419,0,0,1,1.313.167l129.174,74.546a4.324,4.324,0,0,1,1.954,3.381v93.493l0,.016v.427a1.323,1.323,0,0,1-.7,1.173l-.083.055a1.081,1.081,0,0,1-.1.058.71.71,0,0,1-.166.058,1.127,1.127,0,0,1-.25.032,1.259,1.259,0,0,1-.647-.186l-.051-.029,0,0L421.95,210.6,294.693,137.123a4.314,4.314,0,0,1-1.954-3.381V39.775C292.739,39.692,292.746,39.609,292.752,39.532Z" transform="translate(-25.633 -24.875)"/><path class="cls-5" d="M293.38,38.481a1.419,1.419,0,0,1,1.313.167l129.174,74.546a4.324,4.324,0,0,1,1.954,3.381v6.38l2.491-1.461V115.16a4.3,4.3,0,0,0-1.947-3.375L297.184,37.239a1.356,1.356,0,0,0-1.415-.115C295.417,37.335,293.8,38.264,293.38,38.481Z" transform="translate(-25.633 -24.875)"/><path class="cls-5" d="M292.744,39.762c.007-1.232.877-1.731,1.949-1.111L423.868,113.2a4.311,4.311,0,0,1,1.951,3.379l0,6.383L292.744,46.166Z" transform="translate(-25.633 -24.875)"/><g class="cls-15"><path class="cls-13" d="M294.694,38.65,423.866,113.2a4.016,4.016,0,0,1,1.375,1.448l2.479-1.436a3.893,3.893,0,0,0-1.358-1.424L297.186,37.238a1.37,1.37,0,0,0-1.418-.116c-.35.215-1.97,1.135-2.381,1.356A1.409,1.409,0,0,1,294.694,38.65Z" transform="translate(-25.633 -24.875)"/></g><path class="cls-9" d="M428.315,121.5v-6.344a4.028,4.028,0,0,0-.594-1.952l-2.485,1.43a3.944,3.944,0,0,1,.582,1.939v6.382Z" transform="translate(-25.633 -24.875)"/><path class="cls-4" d="M421.419,114.543a2.909,2.909,0,0,1,1.1,2.334c0,.938-.493,1.412-1.1,1.061a2.908,2.908,0,0,1-1.1-2.334C420.316,114.667,420.81,114.192,421.419,114.543Z" transform="translate(-25.633 -24.875)"/><path class="cls-4" d="M417.45,112.247a2.912,2.912,0,0,1,1.1,2.334c0,.938-.494,1.413-1.1,1.061a2.907,2.907,0,0,1-1.1-2.334C416.347,112.371,416.841,111.9,417.45,112.247Z" transform="translate(-25.633 -24.875)"/><path class="cls-4" d="M413.48,109.952a2.906,2.906,0,0,1,1.1,2.333c0,.938-.494,1.413-1.1,1.061a2.906,2.906,0,0,1-1.1-2.334C412.378,110.075,412.871,109.6,413.48,109.952Z" transform="translate(-25.633 -24.875)"/><path class="cls-16" d="M425.119,211.692l.1-.057,2.057-1.19a2.07,2.07,0,0,0,1.019-1.513,2.1,2.1,0,0,0,.019-.285V121.5l-2.494,1.462v87.551a1.281,1.281,0,0,1-.608,1.108.4.4,0,0,1-.063.044c-.006.007-.006.013-.012.013Z" transform="translate(-25.633 -24.875)"/></g><g id="Code"><path class="cls-5" d="M332.31,79.438l27.234,15.694a1.488,1.488,0,0,1,.694,1.151c0,.415-.311.572-.694.351L332.31,80.94a1.484,1.484,0,0,1-.693-1.151C331.617,79.374,331.927,79.217,332.31,79.438Z" transform="translate(-25.633 -24.875)"/><path class="cls-2" d="M342.717,109.48l10.323,5.937a1.486,1.486,0,0,1,.694,1.151c0,.415-.311.572-.694.351l-10.323-5.937a1.487,1.487,0,0,1-.693-1.151C342.024,109.416,342.334,109.259,342.717,109.48Z" transform="translate(-25.633 -24.875)"/><path class="cls-2" d="M342.717,115.488l10.323,5.937a1.488,1.488,0,0,1,.694,1.151c0,.415-.311.572-.694.351l-10.323-5.937a1.485,1.485,0,0,1-.693-1.151C342.024,115.424,342.334,115.267,342.717,115.488Z" transform="translate(-25.633 -24.875)"/><path class="cls-5" d="M362.232,96.683l54.524,31.4a1.487,1.487,0,0,1,.693,1.152c0,.414-.31.572-.693.351l-54.524-31.4a1.487,1.487,0,0,1-.693-1.152C361.539,96.619,361.849,96.462,362.232,96.683Z" transform="translate(-25.633 -24.875)"/><path class="cls-5" d="M342.942,151.611l16.6,9.607a1.486,1.486,0,0,1,.694,1.151c0,.415-.311.572-.694.351l-16.6-9.607a1.486,1.486,0,0,1-.694-1.151C342.248,151.547,342.559,151.39,342.942,151.611Z" transform="translate(-25.633 -24.875)"/><path class="cls-5" d="M362.232,162.769l54.524,31.441a1.485,1.485,0,0,1,.693,1.151c0,.415-.31.572-.693.351l-54.524-31.441a1.487,1.487,0,0,1-.693-1.151C361.539,162.705,361.849,162.548,362.232,162.769Z" transform="translate(-25.633 -24.875)"/><path class="cls-5" d="M332.31,85.46l13.718,7.882a1.488,1.488,0,0,1,.693,1.152c0,.415-.31.572-.693.351L332.31,86.962a1.485,1.485,0,0,1-.693-1.151C331.617,85.4,331.927,85.239,332.31,85.46Z" transform="translate(-25.633 -24.875)"/><path class="cls-17" d="M332.31,85.46l13.718,7.882a1.488,1.488,0,0,1,.693,1.152c0,.415-.31.572-.693.351L332.31,86.962a1.485,1.485,0,0,1-.693-1.151C331.617,85.4,331.927,85.239,332.31,85.46Z" transform="translate(-25.633 -24.875)"/><path class="cls-5" d="M332.31,91.457l6.419,3.7a1.491,1.491,0,0,1,.693,1.152c0,.415-.311.572-.693.351l-6.419-3.7a1.485,1.485,0,0,1-.693-1.151C331.617,91.393,331.927,91.236,332.31,91.457Z" transform="translate(-25.633 -24.875)"/><path class="cls-17" d="M332.31,91.457l6.419,3.7a1.491,1.491,0,0,1,.693,1.152c0,.415-.311.572-.693.351l-6.419-3.7a1.485,1.485,0,0,1-.693-1.151C331.617,91.393,331.927,91.236,332.31,91.457Z" transform="translate(-25.633 -24.875)"/><path class="cls-5" d="M332.31,103.473l6.419,3.7a1.488,1.488,0,0,1,.693,1.151c0,.415-.311.572-.693.351l-6.419-3.7a1.487,1.487,0,0,1-.693-1.152C331.617,103.409,331.927,103.252,332.31,103.473Z" transform="translate(-25.633 -24.875)"/><path class="cls-17" d="M332.31,103.473l6.419,3.7a1.488,1.488,0,0,1,.693,1.151c0,.415-.311.572-.693.351l-6.419-3.7a1.487,1.487,0,0,1-.693-1.152C331.617,103.409,331.927,103.252,332.31,103.473Z" transform="translate(-25.633 -24.875)"/><path class="cls-5" d="M332.31,109.481l6.419,3.7a1.491,1.491,0,0,1,.693,1.152c0,.415-.311.572-.693.351l-6.419-3.7a1.488,1.488,0,0,1-.693-1.152C331.617,109.417,331.927,109.26,332.31,109.481Z" transform="translate(-25.633 -24.875)"/><path class="cls-17" d="M332.31,109.481l6.419,3.7a1.491,1.491,0,0,1,.693,1.152c0,.415-.311.572-.693.351l-6.419-3.7a1.488,1.488,0,0,1-.693-1.152C331.617,109.417,331.927,109.26,332.31,109.481Z" transform="translate(-25.633 -24.875)"/><path class="cls-5" d="M348.715,94.894l8.227,4.765a1.486,1.486,0,0,1,.694,1.151c0,.415-.311.572-.694.351L348.716,96.4a1.488,1.488,0,0,1-.694-1.152C348.022,94.83,348.333,94.673,348.715,94.894Z" transform="translate(-25.633 -24.875)"/><path class="cls-17" d="M348.715,94.894l8.227,4.765a1.486,1.486,0,0,1,.694,1.151c0,.415-.311.572-.694.351L348.716,96.4a1.488,1.488,0,0,1-.694-1.152C348.022,94.83,348.333,94.673,348.715,94.894Z" transform="translate(-25.633 -24.875)"/><path class="cls-13" d="M361.437,138.328l55.319,31.85a1.486,1.486,0,0,1,.694,1.151c0,.415-.311.572-.694.351l-55.319-31.85a1.485,1.485,0,0,1-.693-1.151C360.744,138.264,361.054,138.107,361.437,138.328Z" transform="translate(-25.633 -24.875)"/><path class="cls-13" d="M408.529,159.4l8.227,4.765a1.487,1.487,0,0,1,.693,1.152c0,.414-.31.571-.693.35l-8.227-4.765a1.485,1.485,0,0,1-.693-1.151C407.836,159.331,408.146,159.174,408.529,159.4Z" transform="translate(-25.633 -24.875)"/><path class="cls-13" d="M350.522,125.994l55.32,31.85a1.489,1.489,0,0,1,.693,1.151c0,.415-.311.572-.693.351l-55.32-31.85a1.485,1.485,0,0,1-.693-1.151C349.829,125.93,350.139,125.773,350.522,125.994Z" transform="translate(-25.633 -24.875)"/><path class="cls-5" d="M342.717,97.466l13.717,7.882a1.484,1.484,0,0,1,.694,1.151c0,.415-.31.572-.694.351l-13.717-7.882a1.491,1.491,0,0,1-.694-1.152C342.023,97.4,342.334,97.244,342.717,97.466Z" transform="translate(-25.633 -24.875)"/><path class="cls-17" d="M342.717,97.466l13.717,7.882a1.484,1.484,0,0,1,.694,1.151c0,.415-.31.572-.694.351l-13.717-7.882a1.491,1.491,0,0,1-.694-1.152C342.023,97.4,342.334,97.244,342.717,97.466Z" transform="translate(-25.633 -24.875)"/><path class="cls-5" d="M359.122,106.9,416.347,140a1.487,1.487,0,0,1,.693,1.151c0,.415-.31.572-.693.351L359.122,108.4a1.485,1.485,0,0,1-.693-1.151C358.429,106.835,358.739,106.678,359.122,106.9Z" transform="translate(-25.633 -24.875)"/><path class="cls-17" d="M359.122,106.9,416.347,140a1.487,1.487,0,0,1,.693,1.151c0,.415-.31.572-.693.351L359.122,108.4a1.485,1.485,0,0,1-.693-1.151C358.429,106.835,358.739,106.678,359.122,106.9Z" transform="translate(-25.633 -24.875)"/><path class="cls-2" d="M342.717,133.636l74.039,42.7a1.486,1.486,0,0,1,.694,1.151c0,.415-.311.572-.694.351l-74.039-42.7a1.488,1.488,0,0,1-.693-1.152C342.024,133.572,342.334,133.415,342.717,133.636Z" transform="translate(-25.633 -24.875)"/><path class="cls-5" d="M332.31,127.63l6.419,3.7a1.488,1.488,0,0,1,.693,1.151c0,.415-.311.572-.693.351l-6.419-3.7a1.484,1.484,0,0,1-.693-1.151C331.617,127.566,331.927,127.409,332.31,127.63Z" transform="translate(-25.633 -24.875)"/><path class="cls-17" d="M332.31,127.63l6.419,3.7a1.488,1.488,0,0,1,.693,1.151c0,.415-.311.572-.693.351l-6.419-3.7a1.484,1.484,0,0,1-.693-1.151C331.617,127.566,331.927,127.409,332.31,127.63Z" transform="translate(-25.633 -24.875)"/><path class="cls-2" d="M342.717,139.642l74.039,42.7a1.486,1.486,0,0,1,.694,1.151c0,.415-.311.572-.694.351l-74.039-42.7a1.487,1.487,0,0,1-.693-1.152C342.024,139.578,342.334,139.421,342.717,139.642Z" transform="translate(-25.633 -24.875)"/><path class="cls-5" d="M332.31,133.636l6.419,3.7a1.488,1.488,0,0,1,.693,1.151c0,.415-.311.572-.693.351l-6.419-3.7a1.488,1.488,0,0,1-.693-1.152C331.617,133.572,331.927,133.415,332.31,133.636Z" transform="translate(-25.633 -24.875)"/><path class="cls-17" d="M332.31,133.636l6.419,3.7a1.488,1.488,0,0,1,.693,1.151c0,.415-.311.572-.693.351l-6.419-3.7a1.488,1.488,0,0,1-.693-1.152C331.617,133.572,331.927,133.415,332.31,133.636Z" transform="translate(-25.633 -24.875)"/><path class="cls-2" d="M342.717,145.649l74.039,42.7a1.488,1.488,0,0,1,.694,1.151c0,.415-.311.572-.694.351l-74.039-42.7a1.487,1.487,0,0,1-.693-1.152C342.024,145.584,342.334,145.427,342.717,145.649Z" transform="translate(-25.633 -24.875)"/><path class="cls-5" d="M332.31,139.642l6.419,3.7a1.488,1.488,0,0,1,.693,1.151c0,.415-.311.572-.693.351l-6.419-3.7a1.487,1.487,0,0,1-.693-1.152C331.617,139.578,331.927,139.421,332.31,139.642Z" transform="translate(-25.633 -24.875)"/><path class="cls-17" d="M332.31,139.642l6.419,3.7a1.488,1.488,0,0,1,.693,1.151c0,.415-.311.572-.693.351l-6.419-3.7a1.487,1.487,0,0,1-.693-1.152C331.617,139.578,331.927,139.421,332.31,139.642Z" transform="translate(-25.633 -24.875)"/><g class="cls-18"><path class="cls-13" d="M322.306,73.414l3.772,2.178a1.517,1.517,0,0,1,.685,1.187v1.387c0,.437-.307.614-.685.4l-3.772-2.177a1.517,1.517,0,0,1-.685-1.187V73.81C321.62,73.373,321.927,73.2,322.306,73.414Z" transform="translate(-25.633 -24.875)"/><path class="cls-13" d="M322.306,79.479l3.772,2.178a1.515,1.515,0,0,1,.685,1.187V84.23c0,.437-.307.615-.685.4l-3.772-2.178a1.513,1.513,0,0,1-.685-1.186V79.875C321.62,79.438,321.927,79.261,322.306,79.479Z" transform="translate(-25.633 -24.875)"/><path class="cls-13" d="M322.306,85.544l3.772,2.178a1.515,1.515,0,0,1,.685,1.186V90.3c0,.437-.307.614-.685.4l-3.772-2.178a1.515,1.515,0,0,1-.685-1.187V85.94C321.62,85.5,321.927,85.325,322.306,85.544Z" transform="translate(-25.633 -24.875)"/><path class="cls-13" d="M322.306,91.609l3.772,2.177a1.517,1.517,0,0,1,.685,1.187V96.36c0,.437-.307.614-.685.4l-3.772-2.178a1.515,1.515,0,0,1-.685-1.187V92C321.62,91.567,321.927,91.39,322.306,91.609Z" transform="translate(-25.633 -24.875)"/><path class="cls-13" d="M322.306,97.673l3.772,2.178a1.517,1.517,0,0,1,.685,1.187v1.387c0,.437-.307.614-.685.395l-3.772-2.177a1.517,1.517,0,0,1-.685-1.187V98.069C321.62,97.632,321.927,97.455,322.306,97.673Z" transform="translate(-25.633 -24.875)"/><path class="cls-13" d="M322.306,103.738l3.772,2.178a1.515,1.515,0,0,1,.685,1.187v1.386c0,.437-.307.615-.685.4l-3.772-2.177a1.517,1.517,0,0,1-.685-1.187v-1.387C321.62,103.7,321.927,103.52,322.306,103.738Z" transform="translate(-25.633 -24.875)"/><path class="cls-13" d="M322.306,109.8l3.772,2.178a1.515,1.515,0,0,1,.685,1.187v1.386c0,.437-.307.614-.685.4l-3.772-2.178a1.515,1.515,0,0,1-.685-1.187V110.2C321.62,109.762,321.927,109.584,322.306,109.8Z" transform="translate(-25.633 -24.875)"/><path class="cls-13" d="M322.306,115.868l3.772,2.178a1.513,1.513,0,0,1,.685,1.186v1.387c0,.437-.307.614-.685.4l-3.772-2.178a1.515,1.515,0,0,1-.685-1.187v-1.387C321.62,115.826,321.927,115.649,322.306,115.868Z" transform="translate(-25.633 -24.875)"/><path class="cls-13" d="M322.306,121.932l3.772,2.178a1.517,1.517,0,0,1,.685,1.187v1.387c0,.437-.307.614-.685.395l-3.772-2.177a1.517,1.517,0,0,1-.685-1.187v-1.387C321.62,121.891,321.927,121.714,322.306,121.932Z" transform="translate(-25.633 -24.875)"/><path class="cls-13" d="M322.306,128l3.772,2.178a1.517,1.517,0,0,1,.685,1.187v1.387c0,.437-.307.614-.685.4l-3.772-2.177a1.517,1.517,0,0,1-.685-1.187v-1.387C321.62,127.956,321.927,127.779,322.306,128Z" transform="translate(-25.633 -24.875)"/><path class="cls-13" d="M322.306,134.062l3.772,2.178a1.515,1.515,0,0,1,.685,1.187v1.386c0,.437-.307.614-.685.4l-3.772-2.178a1.515,1.515,0,0,1-.685-1.187v-1.386C321.62,134.021,321.927,133.843,322.306,134.062Z" transform="translate(-25.633 -24.875)"/><path class="cls-13" d="M322.306,140.127l3.772,2.178a1.513,1.513,0,0,1,.685,1.186v1.387c0,.437-.307.614-.685.4l-3.772-2.178a1.515,1.515,0,0,1-.685-1.187v-1.387C321.62,140.085,321.927,139.908,322.306,140.127Z" transform="translate(-25.633 -24.875)"/></g><path class="cls-3" d="M297.28,53.714l20.4,11.777a3.032,3.032,0,0,1,1.37,2.374V91.42c0,.874-.614,1.228-1.37.791l-20.4-11.778a3.032,3.032,0,0,1-1.37-2.374V54.505C295.91,53.631,296.523,53.277,297.28,53.714Z" transform="translate(-25.633 -24.875)"/><path class="cls-5" d="M299.174,77.063l1.878,1.086a1.485,1.485,0,0,1,.693,1.151c0,.415-.31.572-.693.351l-1.878-1.086a1.491,1.491,0,0,1-.694-1.152C298.48,77,298.791,76.842,299.174,77.063Z" transform="translate(-25.633 -24.875)"/><path class="cls-17" d="M299.174,77.063l1.878,1.086a1.485,1.485,0,0,1,.693,1.151c0,.415-.31.572-.693.351l-1.878-1.086a1.491,1.491,0,0,1-.694-1.152C298.48,77,298.791,76.842,299.174,77.063Z" transform="translate(-25.633 -24.875)"/><path class="cls-5" d="M299.174,57.773l1.878,1.086a1.487,1.487,0,0,1,.693,1.152c0,.414-.31.572-.693.35l-1.878-1.086a1.489,1.489,0,0,1-.694-1.151C298.48,57.709,298.791,57.552,299.174,57.773Z" transform="translate(-25.633 -24.875)"/><path class="cls-17" d="M299.174,57.773l1.878,1.086a1.487,1.487,0,0,1,.693,1.152c0,.414-.31.572-.693.35l-1.878-1.086a1.489,1.489,0,0,1-.694-1.151C298.48,57.709,298.791,57.552,299.174,57.773Z" transform="translate(-25.633 -24.875)"/><path class="cls-5" d="M301.813,63.146l1.878,1.087a1.485,1.485,0,0,1,.693,1.151c0,.415-.31.572-.693.351l-1.878-1.086a1.487,1.487,0,0,1-.693-1.152C301.12,63.082,301.43,62.925,301.813,63.146Z" transform="translate(-25.633 -24.875)"/><path class="cls-17" d="M301.813,63.146l1.878,1.087a1.485,1.485,0,0,1,.693,1.151c0,.415-.31.572-.693.351l-1.878-1.086a1.487,1.487,0,0,1-.693-1.152C301.12,63.082,301.43,62.925,301.813,63.146Z" transform="translate(-25.633 -24.875)"/><path class="cls-5" d="M301.813,66.994l1.878,1.087a1.485,1.485,0,0,1,.693,1.151c0,.415-.31.572-.693.351L301.813,68.5a1.487,1.487,0,0,1-.693-1.152C301.12,66.931,301.43,66.773,301.813,66.994Z" transform="translate(-25.633 -24.875)"/><path class="cls-17" d="M301.813,66.994l1.878,1.087a1.485,1.485,0,0,1,.693,1.151c0,.415-.31.572-.693.351L301.813,68.5a1.487,1.487,0,0,1-.693-1.152C301.12,66.931,301.43,66.773,301.813,66.994Z" transform="translate(-25.633 -24.875)"/><path class="cls-5" d="M299.174,69.344l1.878,1.086a1.487,1.487,0,0,1,.693,1.152c0,.415-.31.572-.693.35l-1.878-1.086a1.489,1.489,0,0,1-.694-1.151C298.48,69.28,298.791,69.123,299.174,69.344Z" transform="translate(-25.633 -24.875)"/><path class="cls-17" d="M299.174,69.344l1.878,1.086a1.487,1.487,0,0,1,.693,1.152c0,.415-.31.572-.693.35l-1.878-1.086a1.489,1.489,0,0,1-.694-1.151C298.48,69.28,298.791,69.123,299.174,69.344Z" transform="translate(-25.633 -24.875)"/><path class="cls-5" d="M301.813,74.721l1.878,1.086a1.487,1.487,0,0,1,.693,1.151c0,.415-.31.572-.693.351l-1.878-1.086a1.485,1.485,0,0,1-.693-1.151C301.12,74.657,301.43,74.5,301.813,74.721Z" transform="translate(-25.633 -24.875)"/><path class="cls-17" d="M301.813,74.721l1.878,1.086a1.487,1.487,0,0,1,.693,1.151c0,.415-.31.572-.693.351l-1.878-1.086a1.485,1.485,0,0,1-.693-1.151C301.12,74.657,301.43,74.5,301.813,74.721Z" transform="translate(-25.633 -24.875)"/><path class="cls-5" d="M304.316,60.744l11.469,6.622a1.485,1.485,0,0,1,.693,1.151c0,.415-.31.572-.693.351l-11.469-6.622a1.485,1.485,0,0,1-.693-1.151C303.623,60.68,303.933,60.523,304.316,60.744Z" transform="translate(-25.633 -24.875)"/><path class="cls-19" d="M304.316,60.744l11.469,6.622a1.485,1.485,0,0,1,.693,1.151c0,.415-.31.572-.693.351l-11.469-6.622a1.485,1.485,0,0,1-.693-1.151C303.623,60.68,303.933,60.523,304.316,60.744Z" transform="translate(-25.633 -24.875)"/><path class="cls-5" d="M304.316,80.033l11.469,6.622a1.488,1.488,0,0,1,.693,1.152c0,.415-.31.572-.693.351l-11.469-6.622a1.487,1.487,0,0,1-.693-1.152C303.623,79.97,303.933,79.812,304.316,80.033Z" transform="translate(-25.633 -24.875)"/><path class="cls-19" d="M304.316,80.033l11.469,6.622a1.488,1.488,0,0,1,.693,1.152c0,.415-.31.572-.693.351l-11.469-6.622a1.487,1.487,0,0,1-.693-1.152C303.623,79.97,303.933,79.812,304.316,80.033Z" transform="translate(-25.633 -24.875)"/><path class="cls-5" d="M306.956,66.117l8.829,5.107a1.485,1.485,0,0,1,.693,1.151c0,.415-.31.572-.693.351l-8.829-5.107a1.488,1.488,0,0,1-.694-1.152C306.262,66.052,306.573,65.9,306.956,66.117Z" transform="translate(-25.633 -24.875)"/><path class="cls-19" d="M306.956,66.117l8.829,5.107a1.485,1.485,0,0,1,.693,1.151c0,.415-.31.572-.693.351l-8.829-5.107a1.488,1.488,0,0,1-.694-1.152C306.262,66.052,306.573,65.9,306.956,66.117Z" transform="translate(-25.633 -24.875)"/><path class="cls-5" d="M306.956,69.974l8.829,5.108a1.485,1.485,0,0,1,.693,1.151c0,.415-.31.572-.693.351l-8.829-5.108a1.485,1.485,0,0,1-.694-1.151C306.262,69.91,306.573,69.753,306.956,69.974Z" transform="translate(-25.633 -24.875)"/><path class="cls-19" d="M306.956,69.974l8.829,5.108a1.485,1.485,0,0,1,.693,1.151c0,.415-.31.572-.693.351l-8.829-5.108a1.485,1.485,0,0,1-.694-1.151C306.262,69.91,306.573,69.753,306.956,69.974Z" transform="translate(-25.633 -24.875)"/><path class="cls-5" d="M304.316,72.318l11.469,6.622a1.485,1.485,0,0,1,.693,1.151c0,.415-.31.572-.693.351L304.316,73.82a1.487,1.487,0,0,1-.693-1.152C303.623,72.254,303.933,72.1,304.316,72.318Z" transform="translate(-25.633 -24.875)"/><path class="cls-19" d="M304.316,72.318l11.469,6.622a1.485,1.485,0,0,1,.693,1.151c0,.415-.31.572-.693.351L304.316,73.82a1.487,1.487,0,0,1-.693-1.152C303.623,72.254,303.933,72.1,304.316,72.318Z" transform="translate(-25.633 -24.875)"/><path class="cls-5" d="M306.956,77.692l8.829,5.106a1.485,1.485,0,0,1,.693,1.151c0,.415-.31.572-.693.351l-8.829-5.106a1.488,1.488,0,0,1-.694-1.152C306.262,77.628,306.573,77.471,306.956,77.692Z" transform="translate(-25.633 -24.875)"/><path class="cls-19" d="M306.956,77.692l8.829,5.106a1.485,1.485,0,0,1,.693,1.151c0,.415-.31.572-.693.351l-8.829-5.106a1.488,1.488,0,0,1-.694-1.152C306.262,77.628,306.573,77.471,306.956,77.692Z" transform="translate(-25.633 -24.875)"/><path class="cls-3" d="M297.28,84.865l20.4,11.778a3.03,3.03,0,0,1,1.37,2.373v46.545c0,.874-.614,1.228-1.37.791l-20.4-11.778a3.031,3.031,0,0,1-1.37-2.373V85.656C295.91,84.782,296.523,84.428,297.28,84.865Z" transform="translate(-25.633 -24.875)"/><path class="cls-5" d="M299.174,88.925l1.878,1.086a1.485,1.485,0,0,1,.693,1.151c0,.415-.31.572-.693.351l-1.878-1.086a1.491,1.491,0,0,1-.694-1.152C298.48,88.861,298.791,88.7,299.174,88.925Z" transform="translate(-25.633 -24.875)"/><path class="cls-17" d="M299.174,88.925l1.878,1.086a1.485,1.485,0,0,1,.693,1.151c0,.415-.31.572-.693.351l-1.878-1.086a1.491,1.491,0,0,1-.694-1.152C298.48,88.861,298.791,88.7,299.174,88.925Z" transform="translate(-25.633 -24.875)"/><path class="cls-5" d="M301.813,94.3l1.878,1.086a1.485,1.485,0,0,1,.693,1.151c0,.415-.31.572-.693.351L301.813,95.8a1.487,1.487,0,0,1-.693-1.151C301.12,94.234,301.43,94.077,301.813,94.3Z" transform="translate(-25.633 -24.875)"/><path class="cls-17" d="M301.813,94.3l1.878,1.086a1.485,1.485,0,0,1,.693,1.151c0,.415-.31.572-.693.351L301.813,95.8a1.487,1.487,0,0,1-.693-1.151C301.12,94.234,301.43,94.077,301.813,94.3Z" transform="translate(-25.633 -24.875)"/><path class="cls-5" d="M301.813,98.146l1.878,1.086a1.485,1.485,0,0,1,.693,1.151c0,.415-.31.572-.693.351l-1.878-1.086a1.487,1.487,0,0,1-.693-1.151C301.12,98.082,301.43,97.925,301.813,98.146Z" transform="translate(-25.633 -24.875)"/><path class="cls-17" d="M301.813,98.146l1.878,1.086a1.485,1.485,0,0,1,.693,1.151c0,.415-.31.572-.693.351l-1.878-1.086a1.487,1.487,0,0,1-.693-1.151C301.12,98.082,301.43,97.925,301.813,98.146Z" transform="translate(-25.633 -24.875)"/><path class="cls-5" d="M299.174,100.5l1.878,1.086a1.485,1.485,0,0,1,.693,1.151c0,.415-.31.572-.693.351L299.174,102a1.491,1.491,0,0,1-.694-1.152C298.48,100.432,298.791,100.274,299.174,100.5Z" transform="translate(-25.633 -24.875)"/><path class="cls-17" d="M299.174,100.5l1.878,1.086a1.485,1.485,0,0,1,.693,1.151c0,.415-.31.572-.693.351L299.174,102a1.491,1.491,0,0,1-.694-1.152C298.48,100.432,298.791,100.274,299.174,100.5Z" transform="translate(-25.633 -24.875)"/><path class="cls-5" d="M304.316,91.9l11.469,6.622a1.487,1.487,0,0,1,.693,1.152c0,.414-.31.571-.693.35L304.316,93.4a1.488,1.488,0,0,1-.693-1.152C303.623,91.831,303.933,91.674,304.316,91.9Z" transform="translate(-25.633 -24.875)"/><path class="cls-19" d="M304.316,91.9l11.469,6.622a1.487,1.487,0,0,1,.693,1.152c0,.414-.31.571-.693.35L304.316,93.4a1.488,1.488,0,0,1-.693-1.152C303.623,91.831,303.933,91.674,304.316,91.9Z" transform="translate(-25.633 -24.875)"/><path class="cls-5" d="M306.956,97.268l8.829,5.107a1.487,1.487,0,0,1,.693,1.152c0,.414-.31.571-.693.35l-8.829-5.107a1.488,1.488,0,0,1-.694-1.151C306.262,97.2,306.573,97.047,306.956,97.268Z" transform="translate(-25.633 -24.875)"/><path class="cls-19" d="M306.956,97.268l8.829,5.107a1.487,1.487,0,0,1,.693,1.152c0,.414-.31.571-.693.35l-8.829-5.107a1.488,1.488,0,0,1-.694-1.151C306.262,97.2,306.573,97.047,306.956,97.268Z" transform="translate(-25.633 -24.875)"/><path class="cls-5" d="M306.956,101.126l8.829,5.107a1.487,1.487,0,0,1,.693,1.151c0,.415-.31.572-.693.351l-8.829-5.107a1.488,1.488,0,0,1-.694-1.152C306.262,101.062,306.573,100.905,306.956,101.126Z" transform="translate(-25.633 -24.875)"/><path class="cls-19" d="M306.956,101.126l8.829,5.107a1.487,1.487,0,0,1,.693,1.151c0,.415-.31.572-.693.351l-8.829-5.107a1.488,1.488,0,0,1-.694-1.152C306.262,101.062,306.573,100.905,306.956,101.126Z" transform="translate(-25.633 -24.875)"/><path class="cls-5" d="M304.316,103.469l11.469,6.622a1.487,1.487,0,0,1,.693,1.151c0,.415-.31.572-.693.351l-11.469-6.622a1.485,1.485,0,0,1-.693-1.151C303.623,103.405,303.933,103.248,304.316,103.469Z" transform="translate(-25.633 -24.875)"/><path class="cls-19" d="M304.316,103.469l11.469,6.622a1.487,1.487,0,0,1,.693,1.151c0,.415-.31.572-.693.351l-11.469-6.622a1.485,1.485,0,0,1-.693-1.151C303.623,103.405,303.933,103.248,304.316,103.469Z" transform="translate(-25.633 -24.875)"/><path class="cls-5" d="M301.813,105.9l1.878,1.086a1.485,1.485,0,0,1,.693,1.151c0,.415-.31.572-.693.351l-1.878-1.086a1.487,1.487,0,0,1-.693-1.152C301.12,105.831,301.43,105.674,301.813,105.9Z" transform="translate(-25.633 -24.875)"/><path class="cls-17" d="M301.813,105.9l1.878,1.086a1.485,1.485,0,0,1,.693,1.151c0,.415-.31.572-.693.351l-1.878-1.086a1.487,1.487,0,0,1-.693-1.152C301.12,105.831,301.43,105.674,301.813,105.9Z" transform="translate(-25.633 -24.875)"/><path class="cls-5" d="M301.813,109.743l1.878,1.086a1.485,1.485,0,0,1,.693,1.151c0,.415-.31.572-.693.351l-1.878-1.086a1.487,1.487,0,0,1-.693-1.152C301.12,109.679,301.43,109.522,301.813,109.743Z" transform="translate(-25.633 -24.875)"/><path class="cls-17" d="M301.813,109.743l1.878,1.086a1.485,1.485,0,0,1,.693,1.151c0,.415-.31.572-.693.351l-1.878-1.086a1.487,1.487,0,0,1-.693-1.152C301.12,109.679,301.43,109.522,301.813,109.743Z" transform="translate(-25.633 -24.875)"/><path class="cls-5" d="M306.956,108.865l8.829,5.107a1.487,1.487,0,0,1,.693,1.151c0,.415-.31.572-.693.351l-8.829-5.107a1.488,1.488,0,0,1-.694-1.152C306.262,108.8,306.573,108.644,306.956,108.865Z" transform="translate(-25.633 -24.875)"/><path class="cls-19" d="M306.956,108.865l8.829,5.107a1.487,1.487,0,0,1,.693,1.151c0,.415-.31.572-.693.351l-8.829-5.107a1.488,1.488,0,0,1-.694-1.152C306.262,108.8,306.573,108.644,306.956,108.865Z" transform="translate(-25.633 -24.875)"/><path class="cls-5" d="M306.956,112.723l8.829,5.107a1.485,1.485,0,0,1,.693,1.151c0,.415-.31.572-.693.351l-8.829-5.107a1.488,1.488,0,0,1-.694-1.152C306.262,112.658,306.573,112.5,306.956,112.723Z" transform="translate(-25.633 -24.875)"/><path class="cls-19" d="M306.956,112.723l8.829,5.107a1.485,1.485,0,0,1,.693,1.151c0,.415-.31.572-.693.351l-8.829-5.107a1.488,1.488,0,0,1-.694-1.152C306.262,112.658,306.573,112.5,306.956,112.723Z" transform="translate(-25.633 -24.875)"/><path class="cls-5" d="M299.174,119.832l1.878,1.086a1.485,1.485,0,0,1,.693,1.151c0,.415-.31.572-.693.351l-1.878-1.086a1.491,1.491,0,0,1-.694-1.152C298.48,119.767,298.791,119.61,299.174,119.832Z" transform="translate(-25.633 -24.875)"/><path class="cls-17" d="M299.174,119.832l1.878,1.086a1.485,1.485,0,0,1,.693,1.151c0,.415-.31.572-.693.351l-1.878-1.086a1.491,1.491,0,0,1-.694-1.152C298.48,119.767,298.791,119.61,299.174,119.832Z" transform="translate(-25.633 -24.875)"/><path class="cls-5" d="M304.316,122.805l11.469,6.622a1.485,1.485,0,0,1,.693,1.151c0,.415-.31.572-.693.351l-11.469-6.622a1.487,1.487,0,0,1-.693-1.151C303.623,122.741,303.933,122.584,304.316,122.805Z" transform="translate(-25.633 -24.875)"/><path class="cls-19" d="M304.316,122.805l11.469,6.622a1.485,1.485,0,0,1,.693,1.151c0,.415-.31.572-.693.351l-11.469-6.622a1.487,1.487,0,0,1-.693-1.151C303.623,122.741,303.933,122.584,304.316,122.805Z" transform="translate(-25.633 -24.875)"/><path class="cls-5" d="M301.813,125.231l1.878,1.086a1.485,1.485,0,0,1,.693,1.151c0,.415-.31.572-.693.351l-1.878-1.086a1.487,1.487,0,0,1-.693-1.152C301.12,125.167,301.43,125.01,301.813,125.231Z" transform="translate(-25.633 -24.875)"/><path class="cls-17" d="M301.813,125.231l1.878,1.086a1.485,1.485,0,0,1,.693,1.151c0,.415-.31.572-.693.351l-1.878-1.086a1.487,1.487,0,0,1-.693-1.152C301.12,125.167,301.43,125.01,301.813,125.231Z" transform="translate(-25.633 -24.875)"/><path class="cls-5" d="M301.813,129.079l1.878,1.086a1.485,1.485,0,0,1,.693,1.151c0,.415-.31.572-.693.351l-1.878-1.086a1.487,1.487,0,0,1-.693-1.152C301.12,129.015,301.43,128.858,301.813,129.079Z" transform="translate(-25.633 -24.875)"/><path class="cls-17" d="M301.813,129.079l1.878,1.086a1.485,1.485,0,0,1,.693,1.151c0,.415-.31.572-.693.351l-1.878-1.086a1.487,1.487,0,0,1-.693-1.152C301.12,129.015,301.43,128.858,301.813,129.079Z" transform="translate(-25.633 -24.875)"/><path class="cls-5" d="M306.956,128.2l8.829,5.107a1.485,1.485,0,0,1,.693,1.151c0,.415-.31.572-.693.351l-8.829-5.107a1.488,1.488,0,0,1-.694-1.152C306.262,128.137,306.573,127.98,306.956,128.2Z" transform="translate(-25.633 -24.875)"/><path class="cls-19" d="M306.956,128.2l8.829,5.107a1.485,1.485,0,0,1,.693,1.151c0,.415-.31.572-.693.351l-8.829-5.107a1.488,1.488,0,0,1-.694-1.152C306.262,128.137,306.573,127.98,306.956,128.2Z" transform="translate(-25.633 -24.875)"/><path class="cls-5" d="M306.956,132.059l8.829,5.107a1.485,1.485,0,0,1,.693,1.151c0,.415-.31.572-.693.351l-8.829-5.107a1.488,1.488,0,0,1-.694-1.152C306.262,131.994,306.573,131.837,306.956,132.059Z" transform="translate(-25.633 -24.875)"/><path class="cls-19" d="M306.956,132.059l8.829,5.107a1.485,1.485,0,0,1,.693,1.151c0,.415-.31.572-.693.351l-8.829-5.107a1.488,1.488,0,0,1-.694-1.152C306.262,131.994,306.573,131.837,306.956,132.059Z" transform="translate(-25.633 -24.875)"/><path class="cls-5" d="M301.813,113.57l1.878,1.086a1.487,1.487,0,0,1,.693,1.152c0,.414-.31.572-.693.35l-1.878-1.086a1.485,1.485,0,0,1-.693-1.151C301.12,113.506,301.43,113.349,301.813,113.57Z" transform="translate(-25.633 -24.875)"/><path class="cls-17" d="M301.813,113.57l1.878,1.086a1.487,1.487,0,0,1,.693,1.152c0,.414-.31.572-.693.35l-1.878-1.086a1.485,1.485,0,0,1-.693-1.151C301.12,113.506,301.43,113.349,301.813,113.57Z" transform="translate(-25.633 -24.875)"/><path class="cls-5" d="M299.174,115.92l1.878,1.086a1.487,1.487,0,0,1,.693,1.152c0,.414-.31.571-.693.35l-1.878-1.086a1.489,1.489,0,0,1-.694-1.151C298.48,115.856,298.791,115.7,299.174,115.92Z" transform="translate(-25.633 -24.875)"/><path class="cls-17" d="M299.174,115.92l1.878,1.086a1.487,1.487,0,0,1,.693,1.152c0,.414-.31.571-.693.35l-1.878-1.086a1.489,1.489,0,0,1-.694-1.151C298.48,115.856,298.791,115.7,299.174,115.92Z" transform="translate(-25.633 -24.875)"/><path class="cls-5" d="M306.956,116.55l8.829,5.108a1.485,1.485,0,0,1,.693,1.151c0,.415-.31.572-.693.351l-8.829-5.108a1.486,1.486,0,0,1-.694-1.151C306.262,116.486,306.573,116.329,306.956,116.55Z" transform="translate(-25.633 -24.875)"/><path class="cls-19" d="M306.956,116.55l8.829,5.108a1.485,1.485,0,0,1,.693,1.151c0,.415-.31.572-.693.351l-8.829-5.108a1.486,1.486,0,0,1-.694-1.151C306.262,116.486,306.573,116.329,306.956,116.55Z" transform="translate(-25.633 -24.875)"/><path class="cls-5" d="M304.316,118.894l11.469,6.621a1.488,1.488,0,0,1,.693,1.152c0,.415-.31.572-.693.351L304.316,120.4a1.487,1.487,0,0,1-.693-1.152C303.623,118.829,303.933,118.672,304.316,118.894Z" transform="translate(-25.633 -24.875)"/><path class="cls-19" d="M304.316,118.894l11.469,6.621a1.488,1.488,0,0,1,.693,1.152c0,.415-.31.572-.693.351L304.316,120.4a1.487,1.487,0,0,1-.693-1.152C303.623,118.829,303.933,118.672,304.316,118.894Z" transform="translate(-25.633 -24.875)"/><path class="cls-5" d="M299.174,131.482l1.878,1.086a1.487,1.487,0,0,1,.693,1.151c0,.415-.31.572-.693.351l-1.878-1.086a1.489,1.489,0,0,1-.694-1.151C298.48,131.418,298.791,131.261,299.174,131.482Z" transform="translate(-25.633 -24.875)"/><path class="cls-17" d="M299.174,131.482l1.878,1.086a1.487,1.487,0,0,1,.693,1.151c0,.415-.31.572-.693.351l-1.878-1.086a1.489,1.489,0,0,1-.694-1.151C298.48,131.418,298.791,131.261,299.174,131.482Z" transform="translate(-25.633 -24.875)"/><path class="cls-5" d="M304.316,134.455l11.469,6.622a1.487,1.487,0,0,1,.693,1.152c0,.415-.31.572-.693.35l-11.469-6.621a1.488,1.488,0,0,1-.693-1.152C303.623,134.391,303.933,134.234,304.316,134.455Z" transform="translate(-25.633 -24.875)"/><path class="cls-19" d="M304.316,134.455l11.469,6.622a1.487,1.487,0,0,1,.693,1.152c0,.415-.31.572-.693.35l-11.469-6.621a1.488,1.488,0,0,1-.693-1.152C303.623,134.391,303.933,134.234,304.316,134.455Z" transform="translate(-25.633 -24.875)"/></g></g><g id="Window-3" data-name="Window"><g class="cls-20"><path class="cls-4" d="M410.784,150.294v76.378a3.507,3.507,0,0,0,1.588,2.749l43.879,25.316a1.019,1.019,0,0,0,.525.151.876.876,0,0,0,.2-.026.576.576,0,0,0,.136-.047.909.909,0,0,0,.083-.047l.094-.062a.654.654,0,0,0,.088-.078,1.255,1.255,0,0,0,.292-.417,1.986,1.986,0,0,0,.166-.8V177.417a3.516,3.516,0,0,0-1.587-2.749l-43.879-25.29a1.15,1.15,0,0,0-1.067-.136.736.736,0,0,0-.136.078l-.01.011a.466.466,0,0,0-.1.1.26.26,0,0,0-.047.057.269.269,0,0,0-.052.083.727.727,0,0,0-.094.2.562.562,0,0,0-.036.14c0,.011-.011.021,0,.031a.686.686,0,0,0-.027.146C410.789,150.159,410.784,150.226,410.784,150.294Z" transform="translate(-25.633 -24.875)"/></g><path class="cls-5" d="M411.305,149.242a1.15,1.15,0,0,1,1.067.136l43.879,25.29a3.516,3.516,0,0,1,1.587,2.749V182.6l2.529-1.461v-5.149a3.5,3.5,0,0,0-1.583-2.744L414.9,147.958a1.1,1.1,0,0,0-1.151-.094C413.464,148.036,411.643,149.065,411.305,149.242Z" transform="translate(-25.633 -24.875)"/><path class="cls-5" d="M410.788,150.283c.006-1,.713-1.407,1.584-.9l43.88,25.29a3.507,3.507,0,0,1,1.585,2.747v5.188l-47.048-27.116Z" transform="translate(-25.633 -24.875)"/><g class="cls-15"><path class="cls-13" d="M412.373,149.379l43.877,25.29a3.267,3.267,0,0,1,1.117,1.177l2.519-1.441a3.169,3.169,0,0,0-1.1-1.158l-43.88-25.29a1.112,1.112,0,0,0-1.152-.094c-.285.174-2.105,1.2-2.439,1.376A1.15,1.15,0,0,1,412.373,149.379Z" transform="translate(-25.633 -24.875)"/></g><path class="cls-9" d="M460.37,181.147l0-5.156a3.269,3.269,0,0,0-.482-1.586l-2.524,1.436a3.212,3.212,0,0,1,.474,1.577v5.187Z" transform="translate(-25.633 -24.875)"/><path class="cls-4" d="M455.531,176.8a2.367,2.367,0,0,1,.9,1.9c0,.762-.4,1.148-.9.862a2.362,2.362,0,0,1-.9-1.9C454.635,176.9,455.036,176.517,455.531,176.8Z" transform="translate(-25.633 -24.875)"/><path class="cls-4" d="M452.3,174.937a2.364,2.364,0,0,1,.9,1.9c0,.762-.4,1.148-.9.862a2.362,2.362,0,0,1-.9-1.9C451.408,175.037,451.809,174.651,452.3,174.937Z" transform="translate(-25.633 -24.875)"/><path class="cls-4" d="M449.078,173.071a2.364,2.364,0,0,1,.9,1.9c0,.762-.4,1.148-.9.862a2.362,2.362,0,0,1-.9-1.9C448.182,173.171,448.583,172.785,449.078,173.071Z" transform="translate(-25.633 -24.875)"/><g class="cls-21"><path class="cls-3" d="M457.255,254.742c.058-.036.125-.073.2-.114.146-.089.313-.182.49-.276l0,0c.088-.052.177-.1.265-.151a.048.048,0,0,1,.021-.011c.146-.083.287-.166.417-.239s.758-.421.852-.473.166-.093.2-.109a.9.9,0,0,0,.27-.218,1.187,1.187,0,0,0,.214-.323,1.972,1.972,0,0,0,.182-.838V181.141l-2.529,1.461V253.41a2.346,2.346,0,0,1-.166.8,1.255,1.255,0,0,1-.292.417.267.267,0,0,1-.088.078A.116.116,0,0,1,457.255,254.742Z" transform="translate(-25.633 -24.875)"/></g><path class="cls-5" d="M414.431,164.251a.238.238,0,0,1,.081-.2l1.14-1.043A.054.054,0,0,1,415.7,163a.13.13,0,0,1,.029.012.234.234,0,0,1,.089.109.372.372,0,0,1,.038.16v.793a.7.7,0,0,1-.024.218.311.311,0,0,1-.08.122l-.6.553.6,1.247a1.176,1.176,0,0,1,.08.216,1.015,1.015,0,0,1,.024.245v.792a.157.157,0,0,1-.038.117.068.068,0,0,1-.089.006l-.029-.021a.22.22,0,0,1-.052-.07l-1.14-2.36a.633.633,0,0,1-.081-.3Z" transform="translate(-25.633 -24.875)"/><path class="cls-5" d="M418.6,163.15a.309.309,0,0,1,.087-.133c.038-.034.094-.029.167.013l.428.247a.233.233,0,0,1,.09.11.371.371,0,0,1,.038.159.243.243,0,0,1-.012.074l-1.955,6.077a.3.3,0,0,1-.081.131c-.039.037-.1.034-.174-.011l-.41-.237a.235.235,0,0,1-.09-.109.378.378,0,0,1-.038-.16.243.243,0,0,1,.012-.074Z" transform="translate(-25.633 -24.875)"/><path class="cls-5" d="M421.628,168.994a.235.235,0,0,1-.081.2l-1.14,1.043a.055.055,0,0,1-.052.01l-.029-.012a.239.239,0,0,1-.09-.11.369.369,0,0,1-.037-.159v-.793a.743.743,0,0,1,.023-.218.3.3,0,0,1,.081-.123l.6-.552-.6-1.247a1.142,1.142,0,0,1-.081-.216,1.076,1.076,0,0,1-.023-.245v-.793a.155.155,0,0,1,.037-.116.069.069,0,0,1,.09-.006l.029.021a.242.242,0,0,1,.052.069l1.14,2.36a.636.636,0,0,1,.081.3Z" transform="translate(-25.633 -24.875)"/><path class="cls-5" d="M424.8,172.107a.3.3,0,0,1,.11.135.458.458,0,0,1,.047.2v.873a.191.191,0,0,1-.047.143.084.084,0,0,1-.11.007l-.538-.31a.3.3,0,0,1-.11-.135.45.45,0,0,1-.046-.2v-.873a.19.19,0,0,1,.046-.142.083.083,0,0,1,.11-.008Z" transform="translate(-25.633 -24.875)"/><path class="cls-5" d="M426.6,173.147a.294.294,0,0,1,.11.134.456.456,0,0,1,.046.2v.873a.191.191,0,0,1-.046.143.085.085,0,0,1-.11.008l-.539-.312a.292.292,0,0,1-.109-.134.441.441,0,0,1-.047-.2v-.873a.188.188,0,0,1,.047-.143.083.083,0,0,1,.109-.007Z" transform="translate(-25.633 -24.875)"/><path class="cls-5" d="M428.4,174.185a.3.3,0,0,1,.11.135.468.468,0,0,1,.046.2v.873a.2.2,0,0,1-.046.143.087.087,0,0,1-.11.007l-.538-.311a.282.282,0,0,1-.11-.134.458.458,0,0,1-.047-.2v-.873a.192.192,0,0,1,.047-.143.085.085,0,0,1,.11-.008Z" transform="translate(-25.633 -24.875)"/><path class="cls-5" d="M414.911,171.171l26.364,15.221a1.209,1.209,0,0,1,.563.936c0,.337-.252.465-.563.285l-26.364-15.221a1.211,1.211,0,0,1-.564-.936C414.347,171.119,414.6,170.991,414.911,171.171Z" transform="translate(-25.633 -24.875)"/><path class="cls-2" d="M423.37,190.706l26.364,15.221a1.208,1.208,0,0,1,.563.936c0,.337-.252.465-.563.285L423.37,191.926a1.2,1.2,0,0,1-.564-.935C422.806,190.654,423.058,190.526,423.37,190.706Z" transform="translate(-25.633 -24.875)"/><path class="cls-2" d="M423.37,200.473l12.618,7.291a1.207,1.207,0,0,1,.564.935c0,.338-.253.465-.564.286l-12.618-7.291a1.208,1.208,0,0,1-.564-.936C422.806,200.421,423.058,200.293,423.37,200.473Z" transform="translate(-25.633 -24.875)"/><path class="cls-5" d="M443.459,187.653l10.5,6.042a1.211,1.211,0,0,1,.564.936c0,.337-.253.465-.564.285l-10.5-6.042a1.209,1.209,0,0,1-.563-.936C442.9,187.6,443.148,187.473,443.459,187.653Z" transform="translate(-25.633 -24.875)"/><path class="cls-5" d="M414.911,224.887l26.364,15.221a1.209,1.209,0,0,1,.563.936c0,.337-.252.465-.563.285l-26.364-15.221a1.211,1.211,0,0,1-.564-.936C414.347,224.835,414.6,224.707,414.911,224.887Z" transform="translate(-25.633 -24.875)"/><path class="cls-5" d="M443.459,241.369l10.5,6.042a1.211,1.211,0,0,1,.564.936c0,.337-.253.464-.564.285l-10.5-6.042a1.209,1.209,0,0,1-.563-.936C442.9,241.317,443.148,241.189,443.459,241.369Z" transform="translate(-25.633 -24.875)"/><path class="cls-5" d="M443.459,226.744l10.5,6.042a1.211,1.211,0,0,1,.564.936c0,.337-.253.465-.564.285l-10.5-6.042a1.206,1.206,0,0,1-.563-.936C442.9,226.692,443.148,226.565,443.459,226.744Z" transform="translate(-25.633 -24.875)"/><path class="cls-5" d="M443.459,231.627l10.5,6.042a1.207,1.207,0,0,1,.564.936c0,.337-.253.464-.564.285l-10.5-6.042a1.209,1.209,0,0,1-.563-.936C442.9,231.575,443.148,231.447,443.459,231.627Z" transform="translate(-25.633 -24.875)"/><path class="cls-5" d="M434.5,221.559l5.9,3.407a1.208,1.208,0,0,1,.564.936c0,.337-.252.465-.564.285l-5.9-3.407a1.211,1.211,0,0,1-.564-.936C433.939,221.506,434.192,221.379,434.5,221.559Z" transform="translate(-25.633 -24.875)"/><path class="cls-5" d="M414.911,176.066l15.377,8.872a1.2,1.2,0,0,1,.564.935c0,.338-.252.465-.564.285l-15.377-8.871a1.211,1.211,0,0,1-.564-.936C414.347,176.014,414.6,175.886,414.911,176.066Z" transform="translate(-25.633 -24.875)"/><path class="cls-17" d="M414.911,176.066l15.377,8.872a1.2,1.2,0,0,1,.564.935c0,.338-.252.465-.564.285l-15.377-8.871a1.211,1.211,0,0,1-.564-.936C414.347,176.014,414.6,175.886,414.911,176.066Z" transform="translate(-25.633 -24.875)"/><path class="cls-5" d="M414.911,180.94l5.217,3.009a1.206,1.206,0,0,1,.563.936c0,.337-.252.464-.563.285l-5.217-3.009a1.209,1.209,0,0,1-.564-.936C414.347,180.888,414.6,180.761,414.911,180.94Z" transform="translate(-25.633 -24.875)"/><path class="cls-17" d="M414.911,180.94l5.217,3.009a1.206,1.206,0,0,1,.563.936c0,.337-.252.464-.563.285l-5.217-3.009a1.209,1.209,0,0,1-.564-.936C414.347,180.888,414.6,180.761,414.911,180.94Z" transform="translate(-25.633 -24.875)"/><path class="cls-5" d="M414.911,185.824l5.217,3.008a1.209,1.209,0,0,1,.563.936c0,.337-.252.465-.563.285l-5.217-3.008a1.211,1.211,0,0,1-.564-.936C414.347,185.772,414.6,185.644,414.911,185.824Z" transform="translate(-25.633 -24.875)"/><path class="cls-17" d="M414.911,185.824l5.217,3.008a1.209,1.209,0,0,1,.563.936c0,.337-.252.465-.563.285l-5.217-3.008a1.211,1.211,0,0,1-.564-.936C414.347,185.772,414.6,185.644,414.911,185.824Z" transform="translate(-25.633 -24.875)"/><path class="cls-5" d="M414.911,190.707l5.217,3.009a1.206,1.206,0,0,1,.563.935c0,.338-.252.465-.563.285l-5.217-3.008a1.211,1.211,0,0,1-.564-.936C414.347,190.655,414.6,190.527,414.911,190.707Z" transform="translate(-25.633 -24.875)"/><path class="cls-17" d="M414.911,190.706l5.217,3.008a1.209,1.209,0,0,1,.563.936c0,.337-.252.465-.563.285l-5.217-3.008a1.211,1.211,0,0,1-.564-.936C414.347,190.654,414.6,190.526,414.911,190.706Z" transform="translate(-25.633 -24.875)"/><path class="cls-22" d="M423.369,195.589l15.378,8.872a1.211,1.211,0,0,1,.564.936c0,.337-.253.465-.564.285L423.37,196.81a1.2,1.2,0,0,1-.564-.936C422.806,195.537,423.058,195.409,423.369,195.589Z" transform="translate(-25.633 -24.875)"/><path class="cls-22" d="M440.932,205.722l6.687,3.873a1.209,1.209,0,0,1,.563.936c0,.337-.252.465-.563.285l-6.687-3.873a1.208,1.208,0,0,1-.564-.936C440.368,205.67,440.62,205.542,440.932,205.722Z" transform="translate(-25.633 -24.875)"/><path class="cls-17" d="M423.369,195.589l15.378,8.872a1.211,1.211,0,0,1,.564.936c0,.337-.253.465-.564.285L423.37,196.81a1.2,1.2,0,0,1-.564-.936C422.806,195.537,423.058,195.409,423.369,195.589Z" transform="translate(-25.633 -24.875)"/><path class="cls-17" d="M440.932,205.722l6.687,3.873a1.209,1.209,0,0,1,.563.936c0,.337-.252.465-.563.285l-6.687-3.873a1.208,1.208,0,0,1-.564-.936C440.368,205.67,440.62,205.542,440.932,205.722Z" transform="translate(-25.633 -24.875)"/><path class="cls-5" d="M414.911,195.591l5.217,3.008a1.209,1.209,0,0,1,.563.936c0,.337-.252.465-.563.285l-5.217-3.009a1.207,1.207,0,0,1-.564-.935C414.347,195.538,414.6,195.411,414.911,195.591Z" transform="translate(-25.633 -24.875)"/><path class="cls-17" d="M414.911,195.591l5.217,3.008a1.209,1.209,0,0,1,.563.936c0,.337-.252.465-.563.285l-5.217-3.009a1.207,1.207,0,0,1-.564-.935C414.347,195.538,414.6,195.411,414.911,195.591Z" transform="translate(-25.633 -24.875)"/><path class="cls-5" d="M432.473,186.2l6.687,3.874a1.207,1.207,0,0,1,.564.935c0,.338-.253.465-.564.286l-6.687-3.874a1.207,1.207,0,0,1-.564-.935C431.909,186.146,432.162,186.019,432.473,186.2Z" transform="translate(-25.633 -24.875)"/><path class="cls-17" d="M432.473,186.2l6.687,3.874a1.207,1.207,0,0,1,.564.935c0,.338-.253.465-.564.286l-6.687-3.874a1.207,1.207,0,0,1-.564-.935C431.909,186.146,432.162,186.019,432.473,186.2Z" transform="translate(-25.633 -24.875)"/><path class="cls-13" d="M429.714,209.012l15.378,8.872a1.209,1.209,0,0,1,.563.936c0,.337-.252.465-.563.285l-15.378-8.871a1.211,1.211,0,0,1-.564-.936C429.15,208.96,429.4,208.833,429.714,209.012Z" transform="translate(-25.633 -24.875)"/><path class="cls-13" d="M438.586,219.038l15.377,8.872a1.2,1.2,0,0,1,.564.935c0,.338-.252.465-.564.286l-15.377-8.872a1.208,1.208,0,0,1-.564-.936C438.022,218.986,438.274,218.858,438.586,219.038Z" transform="translate(-25.633 -24.875)"/><path class="cls-13" d="M447.276,219.145l6.687,3.873a1.211,1.211,0,0,1,.564.936c0,.337-.253.465-.564.285l-6.687-3.873a1.211,1.211,0,0,1-.564-.936C446.712,219.093,446.965,218.965,447.276,219.145Z" transform="translate(-25.633 -24.875)"/><path class="cls-2" d="M447.276,238.487l6.687,3.874a1.207,1.207,0,0,1,.564.936c0,.337-.253.464-.564.285l-6.687-3.874a1.207,1.207,0,0,1-.564-.935C446.712,238.435,446.965,238.308,447.276,238.487Z" transform="translate(-25.633 -24.875)"/><path class="cls-5" d="M423.369,185.824l15.378,8.872a1.207,1.207,0,0,1,.564.936c0,.337-.253.464-.564.285l-15.377-8.872a1.208,1.208,0,0,1-.564-.936C422.806,185.772,423.058,185.644,423.369,185.824Z" transform="translate(-25.633 -24.875)"/><path class="cls-17" d="M423.369,185.824l15.378,8.872a1.207,1.207,0,0,1,.564.936c0,.337-.253.464-.564.285l-15.377-8.872a1.208,1.208,0,0,1-.564-.936C422.806,185.772,423.058,185.644,423.369,185.824Z" transform="translate(-25.633 -24.875)"/><path class="cls-5" d="M440.932,195.957l6.687,3.873a1.206,1.206,0,0,1,.563.936c0,.337-.252.464-.563.285l-6.687-3.873a1.208,1.208,0,0,1-.564-.936C440.368,195.9,440.62,195.777,440.932,195.957Z" transform="translate(-25.633 -24.875)"/><path class="cls-17" d="M440.932,195.957l6.687,3.873a1.206,1.206,0,0,1,.563.936c0,.337-.252.464-.563.285l-6.687-3.873a1.208,1.208,0,0,1-.564-.936C440.368,195.9,440.62,195.777,440.932,195.957Z" transform="translate(-25.633 -24.875)"/></g><g id="Mouse"><path class="cls-9" d="M336.115,251.905l9.425,5.441a10.372,10.372,0,0,0,10.4-.548l15.546-11.351c2.773-2.018,2.616-5.048-.352-6.768l-4.726-2.738a12.834,12.834,0,0,0-10.926-.331l-19.193,10.407C333.223,247.554,333.145,250.19,336.115,251.905Z" transform="translate(-25.633 -24.875)"/><path class="cls-3" d="M371.744,240.515l-10.756,8.409-7.938,6.21a7.331,7.331,0,0,1-6.3-.186l-8.434-4.869a.012.012,0,0,1-.012-.013l-.049-.027a5.96,5.96,0,0,1-1.7-8.534q.122-.174.249-.345a11.212,11.212,0,0,1,6.782-4.3l4.273-.857c6.918-1.4,12.6-2.087,13.253-1.64l10.57,6.124A.091.091,0,0,1,371.744,240.515Z" transform="translate(-25.633 -24.875)"/><path class="cls-5" d="M365.731,245.218l.6-.473-9.485-5.476,8.3-2.569-.839-.485-8.3,2.569-5.656-3.266c-.352.065-.711.134-1.072.2Z" transform="translate(-25.633 -24.875)"/><path class="cls-10" d="M353.982,254.625c.013-.012.037-.025.05-.037a.012.012,0,0,1,.012-.013l7.552-5.453,10.2-7.365V240.6a.093.093,0,0,0-.05-.086.091.091,0,0,0-.062-.025c-.757-.261-5.179,1.068-10.521,3.192l-3.54,1.4a11,11,0,0,0-3.018,1.788,11.252,11.252,0,0,0-4.086,8.682v.187a6.977,6.977,0,0,0,2.534-.609Z" transform="translate(-25.633 -24.875)"/></g></g></g><g id="Plant"><g id="Pot"><path class="cls-5" d="M372.7,405.512c-10.378-10.708-16.474-54.288-6.352-62.782h51.5c10.12,8.491,4.03,52.056-6.341,62.772-.089.1-.191.2-.284.294-.119.119-.238.239-.358.354-.293.287-.6.568-.938.843-.082.069-.165.13-.248.2-.254.2-.5.4-.783.6a14.446,14.446,0,0,1-1.342.866c-8.536,4.984-22.377,4.984-30.913,0h0a14.237,14.237,0,0,1-1.35-.873c-.259-.181-.491-.37-.729-.557-.1-.082-.2-.158-.307-.244-.322-.266-.622-.537-.9-.814-.139-.131-.275-.27-.412-.407C372.86,405.677,372.773,405.6,372.7,405.512Z" transform="translate(-25.633 -24.875)"/><g class="cls-15"><path class="cls-13" d="M372.7,405.512c-10.378-10.708-16.474-54.288-6.352-62.782h51.5c10.12,8.491,4.03,52.056-6.341,62.772-.089.1-.191.2-.284.294-.119.119-.238.239-.358.354-.293.287-.6.568-.938.843-.082.069-.165.13-.248.2-.254.2-.5.4-.783.6a14.446,14.446,0,0,1-1.342.866c-8.536,4.984-22.377,4.984-30.913,0h0a14.237,14.237,0,0,1-1.35-.873c-.259-.181-.491-.37-.729-.557-.1-.082-.2-.158-.307-.244-.322-.266-.622-.537-.9-.814-.139-.131-.275-.27-.412-.407C372.86,405.677,372.773,405.6,372.7,405.512Z" transform="translate(-25.633 -24.875)"/></g><path class="cls-5" d="M413.378,339.31c11.751,6.861,11.751,17.984,0,24.845s-30.8,6.861-42.555,0-11.751-17.984,0-24.845S401.626,332.449,413.378,339.31Z" transform="translate(-25.633 -24.875)"/><g class="cls-23"><path class="cls-13" d="M413.378,339.31c11.751,6.861,11.751,17.984,0,24.845s-30.8,6.861-42.555,0-11.751-17.984,0-24.845S401.626,332.449,413.378,339.31Z" transform="translate(-25.633 -24.875)"/></g><path class="cls-5" d="M407.726,342.609c8.629,5.039,8.629,13.208,0,18.246s-22.622,5.039-31.252,0-8.63-13.208,0-18.247S399.1,337.571,407.726,342.609Z" transform="translate(-25.633 -24.875)"/><g class="cls-24"><path d="M407.726,342.609c8.629,5.039,8.629,13.208,0,18.246s-22.622,5.039-31.252,0-8.63-13.208,0-18.247S399.1,337.571,407.726,342.609Z" transform="translate(-25.633 -24.875)"/></g><path class="cls-1" d="M376.474,351.269c8.63-5.039,22.622-5.039,31.252,0a14.4,14.4,0,0,1,5.169,4.793,14.4,14.4,0,0,1-5.169,4.793c-8.63,5.039-22.622,5.039-31.252,0a14.392,14.392,0,0,1-5.169-4.793A14.4,14.4,0,0,1,376.474,351.269Z" transform="translate(-25.633 -24.875)"/><g id="Plants"><path class="cls-5" d="M387.881,329.277a14.292,14.292,0,0,1-1.314-3.757c-.577-3.138.206-6.734,2.744-8.666,1.011-.768,2.326-1.338,2.755-2.532a4.069,4.069,0,0,0,.026-2.074c-.471-2.678-1.376-5.436-.631-8.052a9.007,9.007,0,0,1,5-5.353,27.081,27.081,0,0,1,7.278-1.9,11.649,11.649,0,0,0,3.849-1.1c1.438-.805,1.885-2.227,2.782-3.476a24.243,24.243,0,0,1,3.53-3.772c2.623-2.343,5.908-4.271,9.539-4.111,7.574.335,7.361,6.853,5.174,11.8s-2.762,6.55,1.97,11.7,4.742,11.493-.9,15.048-9.322,4.021-7.086,10.863c2,6.107,3.232,11.322-2.413,17.85-3.648,4.218-8.636,7.23-14.876,6.974A25.006,25.006,0,0,1,398,357c-1.718-.854-.56-2.189-1.141-3.884q-1.87-5.462-3.74-10.924a81.2,81.2,0,0,0-2.975-8.616C389.431,332.082,388.588,330.714,387.881,329.277Z" transform="translate(-25.633 -24.875)"/><g class="cls-25"><path d="M387.881,329.277a14.292,14.292,0,0,1-1.314-3.757c-.577-3.138.206-6.734,2.744-8.666,1.011-.768,2.326-1.338,2.755-2.532a4.069,4.069,0,0,0,.026-2.074c-.471-2.678-1.376-5.436-.631-8.052a9.007,9.007,0,0,1,5-5.353,27.081,27.081,0,0,1,7.278-1.9,11.649,11.649,0,0,0,3.849-1.1c1.438-.805,1.885-2.227,2.782-3.476a24.243,24.243,0,0,1,3.53-3.772c2.623-2.343,5.908-4.271,9.539-4.111,7.574.335,7.361,6.853,5.174,11.8s-2.762,6.55,1.97,11.7,4.742,11.493-.9,15.048-9.322,4.021-7.086,10.863c2,6.107,3.232,11.322-2.413,17.85-3.648,4.218-8.636,7.23-14.876,6.974A25.006,25.006,0,0,1,398,357c-1.718-.854-.56-2.189-1.141-3.884q-1.87-5.462-3.74-10.924a81.2,81.2,0,0,0-2.975-8.616C389.431,332.082,388.588,330.714,387.881,329.277Z" transform="translate(-25.633 -24.875)"/></g><path class="cls-13" d="M398.18,356.974a.561.561,0,0,0,.374-.537c-.319-37.417,20.3-59.757,20.512-59.978a.568.568,0,0,0-.021-.8.551.551,0,0,0-.788.018c-.211.224-21.142,22.871-20.817,60.765A.56.56,0,0,0,398,357,.554.554,0,0,0,398.18,356.974Z" transform="translate(-25.633 -24.875)"/><path class="cls-13" d="M404.183,322.169a.555.555,0,0,0,.113-.054c6.71-4.222,18.685-7.373,18.805-7.407a.563.563,0,0,0-.281-1.091c-.5.128-12.261,3.227-19.115,7.541a.565.565,0,0,0-.177.776A.555.555,0,0,0,404.183,322.169Z" transform="translate(-25.633 -24.875)"/><path class="cls-13" d="M406.255,317.039l.029-.011a.565.565,0,0,0,.305-.735,43.174,43.174,0,0,0-6.19-10.411.553.553,0,0,0-.786-.066.567.567,0,0,0-.063.8,42.927,42.927,0,0,1,6.007,10.107A.557.557,0,0,0,406.255,317.039Z" transform="translate(-25.633 -24.875)"/><path class="cls-5" d="M392.922,361.027a31.5,31.5,0,0,1-16.428.608c-9.426-2.042-15.193-10.843-15.193-10.843s10.195-4.085,16.142-4.482a52.562,52.562,0,0,0-17.857.383s-5.457-2.032-4.423-11.246c0,0,5.136-3.785,16.957-2.3,0,0-5.924-4.228-16.308-5.476-.817.008.288-12,1.279-17.345s2.954-4.524,7.2-4.063,16.806,3.321,18.4,6.4.044,10.935.044,10.935a17.965,17.965,0,0,0,3.466-10.28s4.728,1.728,7.255,3.96a16.8,16.8,0,0,1,4.521,5.66c-.591,4.212-2.572,10.638-5.351,14.227,0,0,6.261-4.042,7.692-11.489a26.044,26.044,0,0,1,4.958,14.653C405.221,349.746,401.034,356.736,392.922,361.027Z" transform="translate(-25.633 -24.875)"/><path class="cls-26" d="M392.922,361.027a31.5,31.5,0,0,1-16.428.608c-9.426-2.042-15.193-10.843-15.193-10.843s10.195-4.085,16.142-4.482a52.562,52.562,0,0,0-17.857.383s-5.457-2.032-4.423-11.246c0,0,5.136-3.785,16.957-2.3,0,0-5.924-4.228-16.308-5.476-.817.008.288-12,1.279-17.345s2.954-4.524,7.2-4.063,16.806,3.321,18.4,6.4.044,10.935.044,10.935a17.965,17.965,0,0,0,3.466-10.28s4.728,1.728,7.255,3.96a16.8,16.8,0,0,1,4.521,5.66c-.591,4.212-2.572,10.638-5.351,14.227,0,0,6.261-4.042,7.692-11.489a26.044,26.044,0,0,1,4.958,14.653C405.221,349.746,401.034,356.736,392.922,361.027Z" transform="translate(-25.633 -24.875)"/><path class="cls-13" d="M394.168,360.19a.543.543,0,0,1-.341-.462c-1.425-17.856-21.4-45.75-30.235-51.35a.546.546,0,0,1-.169-.747.536.536,0,0,1,.739-.171c8.976,5.693,29.285,34.04,30.732,52.181a.539.539,0,0,1-.49.583A.53.53,0,0,1,394.168,360.19Z" transform="translate(-25.633 -24.875)"/></g></g></g><g id="Character"><g id="Character-2" data-name="Character"><path class="cls-27" d="M213.491,349.026c-.036-.2-3.21-11.793-3.21-11.793s1.045,1.067,7.75-.7a37.95,37.95,0,0,0,7.289-3.06l1.915,8.475c1.784,3.263,7.7,1.761,14.187,1.022,1.091-.124,2.211-.306,3.331-.5l.068-.008c3.5-.192,7.016,1.911,3.376,4.9s-9.644,4.117-15.179,5.117C226.36,353.677,214.685,355.632,213.491,349.026Z" transform="translate(-25.633 -24.875)"/><path class="cls-10" d="M260.04,348a6.8,6.8,0,0,1,.484,3.562c-.127,1.292-3.32,5.674-8.961,8.355s-12.62,2.862-15.887,3.8-6.259,2.816-10.108,3.753c-3.967.966-7.656,1.434-11.514-1.106-.711-1.1-1.5-3.628-1.27-3.874C213.4,361.828,260.04,348,260.04,348Z" transform="translate(-25.633 -24.875)"/><path class="cls-5" d="M228.252,343.076c2.483,1.717,7.62.525,13.17-.108,5.234-.6,11.128-2.435,14.685-1.2s6.532,5.422,1.724,10.791c-1.391,1.553-4.335,4.286-6.687,5.129-5.977,2.14-11.34,2.313-15.184,3.261-5,1.235-7.736,3.45-12.364,3.987-5.989.695-9.777-.844-10.812-2.443s-2-14.49.57-14.224c0,0,1.08,4.172,10.862.121C228.486,346.619,228.418,344.015,228.252,343.076Z" transform="translate(-25.633 -24.875)"/><path class="cls-8" d="M228.252,343.076c2.483,1.717,7.62.525,13.17-.108,5.234-.6,11.128-2.435,14.685-1.2s6.532,5.422,1.724,10.791c-1.391,1.553-4.335,4.286-6.687,5.129-5.977,2.14-11.34,2.313-15.184,3.261-5,1.235-7.736,3.45-12.364,3.987-5.989.695-9.777-.844-10.812-2.443s-2-14.49.57-14.224c0,0,1.08,4.172,10.862.121C228.486,346.619,228.418,344.015,228.252,343.076Z" transform="translate(-25.633 -24.875)"/><path class="cls-28" d="M244.851,349.994s-.562-5.445-4.584-6.886a2.112,2.112,0,0,0-2.217.292s3.734.542,4.957,6.927c0,0,.192.422,1,.275C244.287,350.552,244.89,350.444,244.851,349.994Z" transform="translate(-25.633 -24.875)"/><path class="cls-28" d="M234.619,343.823s0-.18.945-.357a1.684,1.684,0,0,1,1.1.12s3,1.3,3.562,6.991c0,0-.024.686-.924.875a.828.828,0,0,1-1.074-.558S237.614,344.907,234.619,343.823Z" transform="translate(-25.633 -24.875)"/><path class="cls-28" d="M231.4,343.941s.168-.343.874-.339c.891.005,1.1.349,1.1.349s2.137,2.19,2.161,6.945c0,0,.089.806-1.032.888s-.96-.828-.96-.828S233.151,344.9,231.4,343.941Z" transform="translate(-25.633 -24.875)"/><path class="cls-3" d="M209.35,270.2c4.9,14.731,17.9,65.458,17.9,65.458s-8.46,7.6-17.639,4.138l-21.867-63.167Z" transform="translate(-25.633 -24.875)"/><path class="cls-27" d="M247.139,365.4c-1-1.487-4.761-11.8-4.761-11.8s3.925,2.242,10.672.638c3.43-.815,6.636-4.541,6.636-4.541l2.881,9.918c1.7,3.306,7.209,2.212,13.709,1.634,1.093-.1,2.217-.253,3.343-.418l.067-.007c3.5-.106,6.967,2.083,3.255,4.978s-9.743,3.879-15.3,4.743C260.956,371.582,250.888,370.969,247.139,365.4Z" transform="translate(-25.633 -24.875)"/><path class="cls-10" d="M297.56,365.091a7.293,7.293,0,0,1,.427,3.836c-.17,1.384-3.714,6-9.84,8.734s-13.624,2.739-17.156,3.663-6.794,2.858-10.951,3.763c-4.284.932-8.257,1.338-12.332-1.491-.734-1.2-1.513-3.935-1.261-4.193C247.123,378.708,297.56,365.091,297.56,365.091Z" transform="translate(-25.633 -24.875)"/><path class="cls-5" d="M263.628,358.872a11.723,11.723,0,0,0,1.229.762,3.736,3.736,0,0,0,1.365.276,19.354,19.354,0,0,0,3.274.083c2.747-.136,5.473-.55,8.21-.794,5.635-.5,12.011-2.321,15.8-.9s7.244,5.976,1.941,11.613a25.98,25.98,0,0,1-7.107,5.391c-6.29,2.631-12.816,2.139-16.969,3.056-5.4,1.194-8.4,3.5-13.379,3.955-6.447.588-10.473-1.164-11.542-2.908-.6-.974.067-6.028-.741-9.954-.7-3.38-.514-5.682.7-5.526a6.033,6.033,0,0,0,.941,1.195,4.443,4.443,0,0,0,1.43,1.13,11.328,11.328,0,0,0,2.419.814,14.059,14.059,0,0,0,4.49.616,2.164,2.164,0,0,0,1.22-.387,2.554,2.554,0,0,0,.709-1.525q.159-.746.317-1.491a2.188,2.188,0,0,1,.273-.778,2.107,2.107,0,0,1,.765-.608,6.568,6.568,0,0,0,2.456-1.872,5.75,5.75,0,0,0,.72-2.314.583.583,0,0,1,.162-.381c.184-.146.451-.022.649.1C263.183,358.568,263.4,358.72,263.628,358.872Z" transform="translate(-25.633 -24.875)"/><path class="cls-8" d="M263.628,358.872a11.723,11.723,0,0,0,1.229.762,3.736,3.736,0,0,0,1.365.276,19.354,19.354,0,0,0,3.274.083c2.747-.136,5.473-.55,8.21-.794,5.635-.5,12.011-2.321,15.8-.9s7.244,5.976,1.941,11.613a25.98,25.98,0,0,1-7.107,5.391c-6.29,2.631-12.816,2.139-16.969,3.056-5.4,1.194-8.4,3.5-13.379,3.955-6.447.588-10.473-1.164-11.542-2.908-.6-.974.067-6.028-.741-9.954-.7-3.38-.514-5.682.7-5.526a6.033,6.033,0,0,0,.941,1.195,4.443,4.443,0,0,0,1.43,1.13,11.328,11.328,0,0,0,2.419.814,14.059,14.059,0,0,0,4.49.616,2.164,2.164,0,0,0,1.22-.387,2.554,2.554,0,0,0,.709-1.525q.159-.746.317-1.491a2.188,2.188,0,0,1,.273-.778,2.107,2.107,0,0,1,.765-.608,6.568,6.568,0,0,0,2.456-1.872,5.75,5.75,0,0,0,.72-2.314.583.583,0,0,1,.162-.381c.184-.146.451-.022.649.1C263.183,358.568,263.4,358.72,263.628,358.872Z" transform="translate(-25.633 -24.875)"/><path class="cls-28" d="M281.2,366.832s-.459-5.861-4.74-7.513a2.267,2.267,0,0,0-2.388.254s4,.68,5.139,7.568c0,0,.2.458,1.073.321C280.582,367.416,281.232,367.315,281.2,366.832Z" transform="translate(-25.633 -24.875)"/><path class="cls-28" d="M270.38,359.938s0-.194,1.024-.36a1.8,1.8,0,0,1,1.18.159s3.188,1.474,3.641,7.6a1.092,1.092,0,0,1-1.016.915.888.888,0,0,1-1.137-.627S273.567,361.18,270.38,359.938Z" transform="translate(-25.633 -24.875)"/><path class="cls-28" d="M266.92,359.979s.19-.364.948-.341c.956.029,1.167.4,1.167.4s2.236,2.407,2.137,7.513c0,0,.073.867-1.132.926s-1.009-.915-1.009-.915S268.776,361.051,266.92,359.979Z" transform="translate(-25.633 -24.875)"/><path class="cls-4" d="M243.842,287.59c3.86,11.87,13.714,45.663,18.216,63.043,0,0-8.09,7.275-18.5,6.64l-25.093-65.064,9.994-6.184Z" transform="translate(-25.633 -24.875)"/><path class="cls-4" d="M161.23,450.026a1.625,1.625,0,0,0,1.626-1.626V343.809a1.627,1.627,0,1,0-3.253,0V448.4A1.625,1.625,0,0,0,161.23,450.026Z" transform="translate(-25.633 -24.875)"/><path class="cls-4" d="M96.519,411.957a1.624,1.624,0,0,0,1.512-1.03L130.1,329.751a1.626,1.626,0,1,0-3.025-1.195L95.006,409.733a1.629,1.629,0,0,0,1.513,2.224Z" transform="translate(-25.633 -24.875)"/><path class="cls-4" d="M100.371,402.207a1.622,1.622,0,0,0,1.182-.51l59.678-63.151L220.8,401.43a1.626,1.626,0,1,0,2.361-2.237L162.41,335.06a1.627,1.627,0,0,0-1.18-.508h0a1.619,1.619,0,0,0-1.18.51l-60.859,64.4a1.627,1.627,0,0,0,1.182,2.744Z" transform="translate(-25.633 -24.875)"/><path class="cls-4" d="M225.939,411.957a1.607,1.607,0,0,0,.6-.115,1.624,1.624,0,0,0,.916-2.109L195.38,328.556a1.626,1.626,0,0,0-3.025,1.195l32.072,81.176A1.623,1.623,0,0,0,225.939,411.957Z" transform="translate(-25.633 -24.875)"/><path class="cls-5" d="M226.724,307.94c1.167-6.56-4.178-11.68-14.234-18.466a237.091,237.091,0,0,0-29.135-16.369c-8.412-3.862-17.018-3.506-27.788,2.028-14.963,7.688-59.991,34.994-59.991,34.994s67.319,38,80.272,36.3,45.326-22.756,47.891-30.166S226.724,307.94,226.724,307.94Z" transform="translate(-25.633 -24.875)"/><g class="cls-29"><path d="M226.724,307.94c1.167-6.56-4.178-11.68-14.234-18.466a237.091,237.091,0,0,0-29.135-16.369c-8.412-3.862-17.018-3.506-27.788,2.028-14.963,7.688-59.991,34.994-59.991,34.994s67.319,38,80.272,36.3,45.326-22.756,47.891-30.166S226.724,307.94,226.724,307.94Z" transform="translate(-25.633 -24.875)"/></g><path class="cls-5" d="M169.345,338.434c9.664,8.749,19.766,1.219,35.747-9.152,18.086-11.736,21.632-21.342,21.632-21.342s0,7.2-1.349,10.57-4.273,7.2-17.316,16.191-22.488,13.493-31.259,15.163l-6.919-.956" transform="translate(-25.633 -24.875)"/><path class="cls-7" d="M205.092,329.282c18.086-11.736,21.632-21.342,21.632-21.342s0,7.2-1.349,10.57-4.273,7.2-17.316,16.191-22.488,13.493-31.259,15.163l-6.919-.956-.536-10.474C179.009,347.183,189.111,339.653,205.092,329.282Z" transform="translate(-25.633 -24.875)"/><path class="cls-5" d="M99.041,399.218,94.086,410.64a1.132,1.132,0,0,0-.053.3,1.115,1.115,0,0,0-.01.211,1.375,1.375,0,0,0,.629.765,2.958,2.958,0,0,0,2.683.126,1.166,1.166,0,0,0,.547-.524.026.026,0,0,1,.008-.019l.04-.157,4.6-10.711Z" transform="translate(-25.633 -24.875)"/><path class="cls-5" d="M223.728,399.7l4.241,11.19a1.124,1.124,0,0,1,.038.286,1.147,1.147,0,0,1,0,.2,1.326,1.326,0,0,1-.639.706,2.843,2.843,0,0,1-2.581,0,1.123,1.123,0,0,1-.5-.528.025.025,0,0,0-.006-.019l-.032-.152-3.931-10.491Z" transform="translate(-25.633 -24.875)"/><path class="cls-5" d="M159.353,440.3v9.256a.933.933,0,0,0,.55.766,2.93,2.93,0,0,0,2.652,0,.935.935,0,0,0,.55-.766V440.3A3.977,3.977,0,0,0,159.353,440.3Z" transform="translate(-25.633 -24.875)"/><path class="cls-3" d="M122.538,268.722c3.834,4.466,38.725-5.572,47.967-6.831,14.909-2.03,27.046-3.514,32.1-1.924s7.209,4.169,8.76,10.229c1.828,7.148,2.776,10.79,2.776,10.79s-24.77,9.508-44.3,11.8S122.538,268.722,122.538,268.722Z" transform="translate(-25.633 -24.875)"/><path class="cls-4" d="M116.029,275.27c-3.868,14.735-7.343,31.879,1.609,41.264,6.029,6.321,36.313,22.737,55.85,16.27,19.247-6.372,59.1-35.959,63.1-38.938s7.637-5.009,7.255-6.276c-5.375-17.843-13.229-19.237-27.8-16.033-17.812,3.919-56.919,19.878-56.919,19.878Z" transform="translate(-25.633 -24.875)"/><polygon class="cls-27" points="178.886 155.644 165.45 170.838 143.746 160.54 158.918 139.547 178.886 155.644"/><path class="cls-30" d="M221.19,151.659s5.5,7.945,4.913,8.751-4.483,1.611-4.483,1.611Z" transform="translate(-25.633 -24.875)"/><circle class="cls-31" cx="195.514" cy="125.453" r="5.975"/><path class="cls-27" d="M205.918,129.682c10.809,2.023,14.024,6.681,15.429,23.747,1.468,17.833-.227,23.487-2.518,25.946-1.546,1.658-10.34,2.153-14.807,1.031-5.592-1.405-18.25-5.567-24.337-14.414-7.159-10.41-9.305-24.691-2.033-30.735C187.885,126.749,201.519,128.859,205.918,129.682Z" transform="translate(-25.633 -24.875)"/><path class="cls-30" d="M204.52,180.519c4.652,1.051,11.725.416,13.826-.79a15.86,15.86,0,0,1-7.824-.288,25.609,25.609,0,0,1-7.168-3.16Z" transform="translate(-25.633 -24.875)"/><path class="cls-10" d="M223.349,136.666l-.031.021c-3.017,2.081-6.7,2.947-10.32,3.51.286,2.894-.626,5.758-1.526,8.523-.623,1.914-2.871,7.925-5.319,4.625-1.768-2.384-3.376-4.554-6.762-3.97-5.581.964-6.173,8.119-2.545,12.375s6.88,2.518,6.88,2.518.514,7.692-3.543,13.129c0,0-6.055,3.722-14.552.922-5.363-1.768-13.1-8.53-15.955-13.807-7.85-14.525-7.89-28.44,1.63-32.721.88-6.962,6.272-10.2,12.467-11.771,8.586-2.181,17.508,3.206,25.81-.35,1.748-.749,3.357-1.81,5.146-2.459a3.525,3.525,0,0,1,3.09.011,3.717,3.717,0,0,1,1.321,2.361,6.659,6.659,0,0,1-.326,4.957,14.541,14.541,0,0,1,3.9-1.437,4.91,4.91,0,0,1,3.945.889,5.068,5.068,0,0,1,1.583,3.439C228.583,131.068,226.351,134.583,223.349,136.666Z" transform="translate(-25.633 -24.875)"/><path class="cls-10" d="M171.193,134.117l-6.525-3.648a3.738,3.738,0,0,1,6.525,3.648Z" transform="translate(-25.633 -24.875)"/><line class="cls-32" x1="180.52" y1="128.47" x2="201.421" y2="124.565"/><path class="cls-27" d="M249.86,189.4c-.563-.942-1.812-1.125-2.848-1.487-1.921-.67-3.421-2.2-5.271-3.048a10.341,10.341,0,0,0-6.657-.449,16.028,16.028,0,0,0-2.224.711,28.487,28.487,0,0,0-3.973,2.014c-5.3,3.135-9.277,10.221-14.484,13.472-1.941,1.211-3.753,2.311-5.54,3.406L221.3,215.105a74.75,74.75,0,0,1,6.135-4.672c3.062-1.822,6.151-1.863,9.591-2.361a47.6,47.6,0,0,0,7.015-1.756,3.049,3.049,0,0,0,2.066-1.348,2.079,2.079,0,0,0-1.334-2.56,18.34,18.34,0,0,0-3.636-.5c-.9-.144-3.295.394-3.827-.513-.278-.474.067-1.059.41-1.488,2.157-2.689,4.886-5.571,8.338-6.38a7.253,7.253,0,0,0,3.037-1.2A2.4,2.4,0,0,0,249.86,189.4Z" transform="translate(-25.633 -24.875)"/><path class="cls-5" d="M175.466,176.992c-13.209-7.207-25.237-2.579-29.571,6.691-3.921,8.387-12.165,40.844-12.165,40.844C137.692,231.956,175.466,176.992,175.466,176.992Z" transform="translate(-25.633 -24.875)"/><path class="cls-5" d="M173.488,179.6l1.978-2.608c-14.913-7.085-28.266,2.223-40.027,20.517-12.676,19.717-19.328,48.03-19.392,77.91,0,0,2.531,13.427,19.5,20.144,18,7.126,43.11,4.107,50.934-14.55,0,0,.157-18.636,5.825-27.812,3.668-5.937,12.219-19.135,18.581-28.6,5.538-8.238,9.842-26.99-1.729-33.849a96.526,96.526,0,0,0-9.406-4.8C189.222,189.427,172.13,183.779,173.488,179.6Z" transform="translate(-25.633 -24.875)"/><path class="cls-33" d="M173.533,179.667l1.933-2.675c-14.913-7.085-28.266,2.223-40.027,20.517-12.676,19.717-19.328,48.03-19.392,77.91,0,0,2.531,13.427,19.5,20.144,18,7.126,43.11,4.107,50.934-14.55,0,0,.157-18.636,5.825-27.812,3.668-5.937,12.219-19.135,18.581-28.6,5.538-8.238,9.842-26.99-1.729-33.849a96.526,96.526,0,0,0-9.406-4.8C189.222,189.427,172.175,183.846,173.533,179.667Z" transform="translate(-25.633 -24.875)"/><path class="cls-34" d="M215.7,212.653a30.141,30.141,0,0,0,.464-10.86h0a58.194,58.194,0,0,1-11.261,17.2c-6.069,6.392-13.565,11.37-19.2,18.151-5.963,7.182-10.249,15.866-15.243,23.711-2,3.149-4.739,9.221-8.464,9.463-4.538.3-8.878-5.237-11.353-9.053-3.948-6.088-7.34-13.692-12.249-19.035-4.289-4.669-10.925-10.65-16.769-7.94h0q-.656,2.326-1.235,4.706-.588,2.4-1.092,4.828l-.039.185q-.5,2.434-.927,4.885c-.015.087-.03.174-.044.261q-.416,2.424-.752,4.861a159.323,159.323,0,0,0-1.492,21.4s2.531,13.427,19.5,20.144c18,7.126,43.11,4.107,50.934-14.55,0,0,.157-18.636,5.825-27.812.57-.922,1.268-2.035,2.047-3.266l.007-.013.133-.209c.648-1.023,1.354-2.131,2.108-3.309.046-.072.091-.144.138-.216l.057-.089c1.619-2.525,3.434-5.334,5.314-8.216q.427-.657.856-1.312c1.815-2.777,3.664-5.586,5.428-8.239l.018-.028c.6-.9,1.176-1.763,1.746-2.615l.729-1.088.005-.007c.2-.3.4-.612.593-.936.059-.1.117-.2.175-.3.141-.242.282-.489.421-.743.061-.112.121-.224.181-.337q.228-.429.448-.88c.037-.077.076-.151.113-.228q.282-.589.551-1.208l.02-.048c.011-.023.02-.048.031-.071q.238-.558.465-1.139c.036-.092.071-.185.107-.278q.209-.549.405-1.114l.03-.088c.015-.041.029-.082.043-.124q.355-1.044.659-2.135l0-.016q.3-1.091.545-2.216l0-.02Z" transform="translate(-25.633 -24.875)"/><path class="cls-27" d="M284.89,230.8a28.547,28.547,0,0,1-3.1,3.2c-4.561,4.132-9.893,6.114-16.088,10.139-5.009,3.253-12.733,7.991-19.242,12.048a97.336,97.336,0,0,1-20.952,9.682c-6.048,1.777-9.432,1.852-13.008-7.835-1.753-4.75-3.143-9.625-4.657-14.457q-3.379-10.786-6.642-21.61s-8.042-19.829,9.95-29.789c7.829,4.48,10.811,6.294,13.267,15.671,2.936,11.226,7.7,33.385,7.7,33.385a157.117,157.117,0,0,0,18.6-7.915c2.283-1.135,5.09-1.922,6.719-3.954a31.29,31.29,0,0,0,2.861-4.453c.766-1.382,1.32-2.884,2.164-4.2a37.693,37.693,0,0,1,5.913-6.513,2.481,2.481,0,0,1,1.43-.847,1.639,1.639,0,0,1,1.451.885c.663,1.155.047,2.288-.292,3.469q-.58,2.02-1.159,4.04a35.235,35.235,0,0,0,11.477-10.76,5.771,5.771,0,0,1,.9-1.147,1.755,1.755,0,0,1,1.335-.489c1.206.15,2.4,2.094,2.458,3.2a17.369,17.369,0,0,0,.09,3.387c.267,1.046.976,1.9,1.3,2.925a16.759,16.759,0,0,1,.685,3.239,11.134,11.134,0,0,1-1.825,6.786A15.963,15.963,0,0,1,284.89,230.8Z" transform="translate(-25.633 -24.875)"/><path class="cls-5" d="M210.076,191.35c6.858,2.772,11.793,5.9,14.919,16.36,3.143,10.517,6.516,27.242,6.516,27.242s.064,3.51-8.259,8.416a20.487,20.487,0,0,1-16.107,2.171l-6.285-20.2S189.717,198.329,210.076,191.35Z" transform="translate(-25.633 -24.875)"/><path class="cls-5" d="M169.881,348.908c-5.5-.277-9.81-4.317-22.9-9.769-24.16-10.067-42.28-18.12-49.183-30.776s-11.793-49.183-10.067-65a20.947,20.947,0,0,1,1.183-5.244l-1.7-.249,4.4-3.746v.011c4.514-3.687,11.861-.4,17.4,2.613,15.817,8.608,28.187,16.97,37.966,47.17,7.356,22.716,12.207,43.438,22.359,54.518" transform="translate(-25.633 -24.875)"/><path class="cls-35" d="M88.919,238.117l-1.7-.249,4.4-3.746v.011c4.514-3.687,11.861-.4,17.4,2.613,15.817,8.608,28.187,16.969,37.966,47.17,7.356,22.716,12.207,43.438,22.359,54.518l.536,10.474c-5.5-.277-9.81-4.317-22.9-9.769-24.16-10.067-42.28-18.12-49.183-30.776s-11.793-49.183-10.067-65A20.947,20.947,0,0,1,88.919,238.117Z" transform="translate(-25.633 -24.875)"/><path class="cls-5" d="M104.436,240.635c15.817,8.609,28.187,16.97,37.966,47.17s15.128,56.882,34.4,62.059c0,0-8.713,3.463-35.415-7.831-8.5-3.593-18.8-10.145-25.578-13.946-13.271-7.448-21.316-13.551-22.588-15.834-7.015-12.594-11.793-49.183-10.067-65S96.515,236.324,104.436,240.635Z" transform="translate(-25.633 -24.875)"/></g></g><g id="Speech_Bubble" data-name="Speech Bubble"><g id="Speech_Bubble-2" data-name="Speech Bubble"><path class="cls-5" d="M193.338,106.694l-4.369-8.215,3.515-10.146V82.122l-10.757,6.211v6.211l4.625,8.01a.667.667,0,0,0,.314.279l0,0Z" transform="translate(-25.633 -24.875)"/><path class="cls-36" d="M193.338,106.694l-4.369-8.215,3.515-10.146V82.122l-10.757,6.211v6.211l4.625,8.01a.667.667,0,0,0,.314.279l0,0Z" transform="translate(-25.633 -24.875)"/><path class="cls-5" d="M219.027,32.748a7.128,7.128,0,0,0-3.225-5.586l-2.626-1.516a7.13,7.13,0,0,0-6.45,0L166.453,48.939a7.13,7.13,0,0,0-3.226,5.586V98.837a7.129,7.129,0,0,0,3.226,5.586l2.626,1.516a7.126,7.126,0,0,0,6.451,0l12.952-7.483,4.615,7.994a.689.689,0,0,0,1.248-.118l4.877-14.081L215.8,82.646a7.128,7.128,0,0,0,3.225-5.586Z" transform="translate(-25.633 -24.875)"/><path class="cls-36" d="M163.228,98.837a7.128,7.128,0,0,0,3.225,5.586l2.626,1.516a7.2,7.2,0,0,0,5.9.26c-1.518.574-2.673-.282-2.673-2.122V59.766a6.6,6.6,0,0,1,.944-3.179l-9.076-5.24a6.587,6.587,0,0,0-.944,3.179Z" transform="translate(-25.633 -24.875)"/><path class="cls-14" d="M218.922,31.832c-.376-1.369-1.625-1.806-3.115-.948l-40.28,23.3a6.392,6.392,0,0,0-2.272,2.407l-9.072-5.236a6.51,6.51,0,0,1,2.271-2.408l40.265-23.3a7.172,7.172,0,0,1,6.455,0l2.633,1.519A7.117,7.117,0,0,1,218.922,31.832Z" transform="translate(-25.633 -24.875)"/><g id="_" data-name="&lt;/&gt;"><path class="cls-13" d="M178.225,77.165a2.333,2.333,0,0,1,.165-.921,6.136,6.136,0,0,1,.471-.861l8.756-14.155a1.241,1.241,0,0,1,.142-.167.652.652,0,0,1,.1-.073.25.25,0,0,1,.327.013.579.579,0,0,1,.132.43V66.89a2.369,2.369,0,0,1-.252,1.14,7.969,7.969,0,0,1-.448.748L183.1,75.664l4.515,2.075a1.8,1.8,0,0,1,.448.214q.252.157.252.832v3.878a1.338,1.338,0,0,1-.132.581.852.852,0,0,1-.327.392.393.393,0,0,1-.1.039.3.3,0,0,1-.142,0l-8.756-4.044a1.2,1.2,0,0,1-.471-.318,1.17,1.17,0,0,1-.165-.731Z" transform="translate(-25.633 -24.875)"/><path class="cls-13" d="M197.313,55.3a4.635,4.635,0,0,1,.329-.88,1.563,1.563,0,0,1,.635-.686l2.933-1.694a.26.26,0,0,1,.34.024.589.589,0,0,1,.141.439,1.494,1.494,0,0,1-.044.33l-7.4,31.535a4.038,4.038,0,0,1-.306.851,1.6,1.6,0,0,1-.657.717l-2.868,1.655a.258.258,0,0,1-.338-.023.592.592,0,0,1-.143-.441,1.445,1.445,0,0,1,.046-.328Z" transform="translate(-25.633 -24.875)"/><path class="cls-13" d="M213.4,60.4a2.322,2.322,0,0,1-.164.92,6.319,6.319,0,0,1-.472.863l-8.756,14.154a1.016,1.016,0,0,1-.142.166.736.736,0,0,1-.1.075.252.252,0,0,1-.328-.013.579.579,0,0,1-.131-.43v-5.46a2.266,2.266,0,0,1,.251-1.122c.167-.3.318-.544.448-.732l3.831-5.918-3.831-1.461a1.6,1.6,0,0,1-.448-.23c-.168-.118-.251-.4-.251-.849V54.9a1.337,1.337,0,0,1,.131-.581.848.848,0,0,1,.328-.392.412.412,0,0,1,.1-.041.361.361,0,0,1,.142,0l8.756,4.045a1.222,1.222,0,0,1,.472.317,1.174,1.174,0,0,1,.164.73Z" transform="translate(-25.633 -24.875)"/></g></g></g><g id="Text_Boxes" data-name="Text Boxes"><g id="Text_Box" data-name="Text Box"><g id="_2" data-name="{}"><g id="Speech_Bubble-3" data-name="Speech Bubble"><g id="Speach_Bubble" data-name="Speach Bubble"><path class="cls-10" d="M96.5,27.2,42.607,58.248a2.954,2.954,0,0,0-1.338,2.316V90.646a2.919,2.919,0,0,0,1.345,2.3l5.319,3.024a3,3,0,0,0,2.682-.013L104.5,64.915a2.956,2.956,0,0,0,1.337-2.316V32.519a2.917,2.917,0,0,0-1.345-2.3l-5.319-3.025A3,3,0,0,0,96.5,27.2Z" transform="translate(-25.633 -24.875)"/><path class="cls-4" d="M105.823,32.276c-.1-.673-.655-.914-1.322-.531L50.618,62.79a2.734,2.734,0,0,0-.945,1L41.688,59.2a2.668,2.668,0,0,1,.921-.952L96.5,27.2a2.991,2.991,0,0,1,2.681-.012l5.316,3.023A2.952,2.952,0,0,1,105.823,32.276Z" transform="translate(-25.633 -24.875)"/><path class="cls-3" d="M104.5,31.747,50.615,62.79a2.956,2.956,0,0,0-1.337,2.316V95.187c0,.852.6,1.2,1.337.772L104.5,64.915a2.956,2.956,0,0,0,1.337-2.316V32.519C105.841,31.666,105.242,31.32,104.5,31.747Z" transform="translate(-25.633 -24.875)"/></g></g></g><path class="cls-37" d="M62.6,70.5c-.012.237-.02.559-.026.969s-.009.831-.009,1.263,0,.855.009,1.267.014.729.026.952a5.951,5.951,0,0,0,.154,1.076,1.687,1.687,0,0,0,.379.761.933.933,0,0,0,.655.3,1.851,1.851,0,0,0,.98-.314,3.8,3.8,0,0,0,.964-.768,4.766,4.766,0,0,0,.618-.874,4.523,4.523,0,0,0,.371-.89q.129-.445.2-.8a3.3,3.3,0,0,1,.189-.707.914.914,0,0,1,.4-.4l2.254-1.3a.2.2,0,0,1,.266.018.461.461,0,0,1,.113.346,10.552,10.552,0,0,1-.43,2.791,13.01,13.01,0,0,1-2.831,5.092,8.714,8.714,0,0,1-2.108,1.733,4.46,4.46,0,0,1-2.212.708,2.521,2.521,0,0,1-1.66-.592,3.675,3.675,0,0,1-1.058-1.68,8.9,8.9,0,0,1-.421-2.526q-.034-1.065-.035-2.311t.035-2.4a13.734,13.734,0,0,1,.413-3.007,14.206,14.206,0,0,1,1.058-2.9,11.867,11.867,0,0,1,1.66-2.508,8.623,8.623,0,0,1,2.22-1.851,4.708,4.708,0,0,1,2.108-.7,2.855,2.855,0,0,1,1.7.412A3.039,3.039,0,0,1,69.7,63.06a5.965,5.965,0,0,1,.43,2.294,1.1,1.1,0,0,1-.113.476.708.708,0,0,1-.266.326l-2.254,1.3q-.292.169-.4.057a1.173,1.173,0,0,1-.189-.487,3.673,3.673,0,0,0-.2-.575,1.075,1.075,0,0,0-.371-.462,1.045,1.045,0,0,0-.618-.159,2.151,2.151,0,0,0-.964.344,3.55,3.55,0,0,0-.98.819,4.631,4.631,0,0,0-.655,1.053,5.434,5.434,0,0,0-.379,1.2A9.37,9.37,0,0,0,62.6,70.5Z" transform="translate(-25.633 -24.875)"/><path class="cls-37" d="M77.238,54.735a4.512,4.512,0,0,1,2.022-.677,2.917,2.917,0,0,1,1.592.338A2.672,2.672,0,0,1,81.9,55.487a3.392,3.392,0,0,1,.4,1.546,1.112,1.112,0,0,1-.112.475.7.7,0,0,1-.249.316l-2.255,1.3a.509.509,0,0,1-.687-.027c-.036-.033-.09-.09-.164-.17a.833.833,0,0,0-.319-.2A1.114,1.114,0,0,0,78,58.683a2.02,2.02,0,0,0-.757.29,5.126,5.126,0,0,0-.628.429,3.653,3.653,0,0,0-.533.52,2.44,2.44,0,0,0-.379.63,1.906,1.906,0,0,0-.147.746.8.8,0,0,0,.164.568.739.739,0,0,0,.551.172,4.452,4.452,0,0,0,1.024-.153q.636-.156,1.583-.411a5.216,5.216,0,0,1,1.651-.212,1.949,1.949,0,0,1,1.18.446,2.411,2.411,0,0,1,.705,1.181,7.307,7.307,0,0,1,.232,2.025,8.969,8.969,0,0,1-.4,2.64,10.727,10.727,0,0,1-1.111,2.455,11.1,11.1,0,0,1-1.685,2.126,10.506,10.506,0,0,1-2.126,1.624,5.215,5.215,0,0,1-2.134.756,2.9,2.9,0,0,1-1.66-.3,2.655,2.655,0,0,1-1.093-1.131,3.83,3.83,0,0,1-.413-1.747,1.1,1.1,0,0,1,.112-.476.685.685,0,0,1,.25-.316l2.254-1.3a.7.7,0,0,1,.379-.126.54.54,0,0,1,.274.119c.046.044.116.119.206.225a1.184,1.184,0,0,0,.372.276,1.132,1.132,0,0,0,.584.1,2.034,2.034,0,0,0,.869-.316,6.484,6.484,0,0,0,1.523-1.184,2.088,2.088,0,0,0,.611-1.452.573.573,0,0,0-.224-.533,1.148,1.148,0,0,0-.671-.1,6.372,6.372,0,0,0-1.145.223q-.695.192-1.642.42a2.491,2.491,0,0,1-2.59-.452,4.718,4.718,0,0,1-.818-3.171A8.993,8.993,0,0,1,72.7,60.9a11.1,11.1,0,0,1,2.512-4.536A8.491,8.491,0,0,1,77.238,54.735Z" transform="translate(-25.633 -24.875)"/><path class="cls-37" d="M89.7,47.542a4.512,4.512,0,0,1,2.022-.677,2.9,2.9,0,0,1,1.592.339,2.666,2.666,0,0,1,1.05,1.09,3.382,3.382,0,0,1,.395,1.546,1.11,1.11,0,0,1-.111.475.687.687,0,0,1-.25.316l-2.255,1.3a.51.51,0,0,1-.687-.027c-.035-.033-.09-.09-.164-.17a.829.829,0,0,0-.318-.2,1.117,1.117,0,0,0-.517-.045,2.02,2.02,0,0,0-.757.29,5.04,5.04,0,0,0-.627.429,3.712,3.712,0,0,0-.534.52,2.468,2.468,0,0,0-.379.63,1.923,1.923,0,0,0-.146.746.8.8,0,0,0,.164.568.735.735,0,0,0,.55.172,4.452,4.452,0,0,0,1.024-.153q.636-.156,1.583-.411a5.218,5.218,0,0,1,1.652-.212,1.949,1.949,0,0,1,1.179.446,2.4,2.4,0,0,1,.7,1.181,7.269,7.269,0,0,1,.232,2.025,8.964,8.964,0,0,1-.4,2.64,10.7,10.7,0,0,1-1.11,2.455,11.148,11.148,0,0,1-1.686,2.126,10.464,10.464,0,0,1-2.125,1.624,5.215,5.215,0,0,1-2.134.756,2.9,2.9,0,0,1-1.66-.3,2.636,2.636,0,0,1-1.093-1.13,3.837,3.837,0,0,1-.414-1.748,1.092,1.092,0,0,1,.113-.476.691.691,0,0,1,.249-.316l2.254-1.3a.709.709,0,0,1,.379-.126.547.547,0,0,1,.275.119c.045.044.115.12.206.225a1.179,1.179,0,0,0,.371.276,1.146,1.146,0,0,0,.584.1,2.059,2.059,0,0,0,.87-.317,6.472,6.472,0,0,0,1.522-1.184,2.089,2.089,0,0,0,.612-1.452.571.571,0,0,0-.225-.533,1.154,1.154,0,0,0-.671-.1,6.364,6.364,0,0,0-1.144.223q-.7.192-1.643.42a2.491,2.491,0,0,1-2.59-.452,4.724,4.724,0,0,1-.817-3.171,8.952,8.952,0,0,1,.336-2.367,11.1,11.1,0,0,1,2.512-4.536A8.511,8.511,0,0,1,89.7,47.542Z" transform="translate(-25.633 -24.875)"/></g><g id="Text_Box-2" data-name="Text Box"><g id="_3" data-name="{}"><g id="Speech_Bubble-4" data-name="Speech Bubble"><g id="Speach_Bubble-2" data-name="Speach Bubble"><path class="cls-10" d="M96.5,89.718,42.607,120.762a2.954,2.954,0,0,0-1.338,2.315v30.082a2.918,2.918,0,0,0,1.345,2.3l5.319,3.024a2.993,2.993,0,0,0,2.682-.013L104.5,127.429a2.957,2.957,0,0,0,1.337-2.316V95.032a2.918,2.918,0,0,0-1.345-2.3l-5.319-3.024A3,3,0,0,0,96.5,89.718Z" transform="translate(-25.633 -24.875)"/><path class="cls-4" d="M105.823,94.79c-.1-.674-.655-.914-1.322-.532L50.618,125.3a2.731,2.731,0,0,0-.945,1l-7.985-4.592a2.672,2.672,0,0,1,.921-.951L96.5,89.716a2.991,2.991,0,0,1,2.681-.013l5.316,3.024A2.952,2.952,0,0,1,105.823,94.79Z" transform="translate(-25.633 -24.875)"/><path class="cls-3" d="M104.5,94.26,50.615,125.3a2.956,2.956,0,0,0-1.337,2.316V157.7c0,.853.6,1.2,1.337.772L104.5,127.429a2.957,2.957,0,0,0,1.337-2.316V95.032C105.841,94.179,105.242,93.834,104.5,94.26Z" transform="translate(-25.633 -24.875)"/></g></g></g><path class="cls-37" d="M62.853,125.818a.25.25,0,0,1,.326.024.566.566,0,0,1,.138.424V143.38a1.352,1.352,0,0,1-.138.583.862.862,0,0,1-.326.4l-2.255,1.3a.248.248,0,0,1-.326-.023.562.562,0,0,1-.139-.424v-6.491l-3.819,2.206v6.491a1.339,1.339,0,0,1-.139.582.866.866,0,0,1-.326.4l-2.254,1.3a.261.261,0,0,1-.327-.009.56.56,0,0,1-.138-.437V132.148a1.357,1.357,0,0,1,.138-.584.877.877,0,0,1,.327-.4l2.254-1.3a.248.248,0,0,1,.326.023.565.565,0,0,1,.139.425v6.384l3.819-2.2V128.1a1.34,1.34,0,0,1,.139-.583.871.871,0,0,1,.326-.4Z" transform="translate(-25.633 -24.875)"/><path class="cls-37" d="M75.431,118.556a.251.251,0,0,1,.327.023A.57.57,0,0,1,75.9,119v2.807a1.357,1.357,0,0,1-.138.584.864.864,0,0,1-.327.4L72.4,124.544v13.591a1.348,1.348,0,0,1-.138.582.867.867,0,0,1-.327.4l-2.253,1.3a.25.25,0,0,1-.328-.023.563.563,0,0,1-.138-.423V126.382l-3.028,1.748a.247.247,0,0,1-.326-.023.562.562,0,0,1-.138-.424v-2.808a1.338,1.338,0,0,1,.138-.583.871.871,0,0,1,.326-.4Z" transform="translate(-25.633 -24.875)"/><path class="cls-37" d="M83.337,127.861a1.222,1.222,0,0,1-.232-.3l-1.617-3.437v8.77a1.351,1.351,0,0,1-.138.582.873.873,0,0,1-.327.4l-2.254,1.3a.249.249,0,0,1-.327-.023.566.566,0,0,1-.138-.424V117.613a1.356,1.356,0,0,1,.138-.583.872.872,0,0,1,.327-.4l2-1.152c.23-.133.4-.134.516-.006a1.578,1.578,0,0,1,.224.294l2.787,5.729,2.789-8.948c.033-.108.109-.292.222-.552a1.231,1.231,0,0,1,.518-.591l2-1.152a.25.25,0,0,1,.327.023.569.569,0,0,1,.138.425v17.114a1.356,1.356,0,0,1-.138.583.875.875,0,0,1-.327.4l-2.254,1.3a.25.25,0,0,1-.327-.024.563.563,0,0,1-.138-.423v-8.77l-1.617,5.305a5.256,5.256,0,0,1-.232.572,1,1,0,0,1-.405.458l-1.1.636C83.57,127.951,83.435,127.955,83.337,127.861Z" transform="translate(-25.633 -24.875)"/><path class="cls-37" d="M101.982,117.533a.248.248,0,0,1,.326.023.564.564,0,0,1,.139.424v2.809a1.343,1.343,0,0,1-.139.583.867.867,0,0,1-.326.4l-7.967,4.6a.249.249,0,0,1-.327-.023.566.566,0,0,1-.138-.424V108.811a1.36,1.36,0,0,1,.138-.584.874.874,0,0,1,.327-.4l2.254-1.3a.25.25,0,0,1,.326.024.562.562,0,0,1,.139.424v13.59Z" transform="translate(-25.633 -24.875)"/></g><g id="Text_Box-3" data-name="Text Box"><g id="_4" data-name="{}"><g id="Speech_Bubble-5" data-name="Speech Bubble"><g id="Speach_Bubble-3" data-name="Speach Bubble"><path class="cls-10" d="M96.5,152.232,42.607,183.275a2.956,2.956,0,0,0-1.338,2.316v30.082a2.918,2.918,0,0,0,1.345,2.3L47.933,221a3,3,0,0,0,2.682-.013L104.5,189.942a2.956,2.956,0,0,0,1.337-2.316v-30.08a2.917,2.917,0,0,0-1.345-2.3l-5.319-3.025A2.993,2.993,0,0,0,96.5,152.232Z" transform="translate(-25.633 -24.875)"/><path class="cls-4" d="M105.823,157.3c-.1-.673-.655-.914-1.322-.531L50.618,187.817a2.734,2.734,0,0,0-.945,1l-7.985-4.592a2.656,2.656,0,0,1,.921-.951L96.5,152.23a2.987,2.987,0,0,1,2.681-.013l5.316,3.023A2.954,2.954,0,0,1,105.823,157.3Z" transform="translate(-25.633 -24.875)"/><path class="cls-3" d="M104.5,156.774,50.615,187.817a2.959,2.959,0,0,0-1.337,2.316v30.081c0,.853.6,1.2,1.337.772L104.5,189.942a2.956,2.956,0,0,0,1.337-2.316v-30.08C105.841,156.693,105.242,156.347,104.5,156.774Z" transform="translate(-25.633 -24.875)"/></g></g></g><path class="cls-37" d="M63.644,194.922c-.012.237-.02.559-.025.969s-.009.831-.009,1.264,0,.855.009,1.266.013.729.025.952a5.973,5.973,0,0,0,.155,1.077,1.663,1.663,0,0,0,.379.76.934.934,0,0,0,.654.3,1.859,1.859,0,0,0,.981-.315,3.774,3.774,0,0,0,.963-.768,4.773,4.773,0,0,0,.619-.874,4.54,4.54,0,0,0,.371-.889c.086-.3.151-.564.2-.8a3.264,3.264,0,0,1,.19-.706.9.9,0,0,1,.395-.4l2.254-1.3a.205.205,0,0,1,.267.018.465.465,0,0,1,.112.346,10.6,10.6,0,0,1-.429,2.792A13.035,13.035,0,0,1,67.92,203.7a8.7,8.7,0,0,1-2.107,1.734,4.46,4.46,0,0,1-2.212.707,2.52,2.52,0,0,1-1.66-.591,3.674,3.674,0,0,1-1.059-1.681,8.968,8.968,0,0,1-.421-2.525c-.023-.711-.035-1.48-.035-2.311s.012-1.632.035-2.4a13.923,13.923,0,0,1,.412-3.007,14.224,14.224,0,0,1,1.06-2.9,11.874,11.874,0,0,1,1.66-2.509,8.623,8.623,0,0,1,2.22-1.851,4.708,4.708,0,0,1,2.107-.7,2.86,2.86,0,0,1,1.695.412,3.041,3.041,0,0,1,1.137,1.411,5.989,5.989,0,0,1,.429,2.294,1.117,1.117,0,0,1-.112.477.7.7,0,0,1-.267.325l-2.254,1.3c-.2.113-.327.133-.395.057a1.164,1.164,0,0,1-.19-.486,3.71,3.71,0,0,0-.2-.576,1.066,1.066,0,0,0-.371-.461,1.042,1.042,0,0,0-.619-.16,2.164,2.164,0,0,0-.963.345,3.537,3.537,0,0,0-.981.818,4.663,4.663,0,0,0-.654,1.053,5.331,5.331,0,0,0-.379,1.2A9.372,9.372,0,0,0,63.644,194.922Z" transform="translate(-25.633 -24.875)"/><path class="cls-37" d="M79.44,191.392v4.372a1.361,1.361,0,0,1-.137.582.879.879,0,0,1-.327.4L76.807,198a.247.247,0,0,1-.326-.023.562.562,0,0,1-.138-.424V193.18l-2.668,1.54a.247.247,0,0,1-.326-.023.564.564,0,0,1-.138-.424V191.6a1.349,1.349,0,0,1,.138-.583.872.872,0,0,1,.326-.4l2.668-1.54V184.7a1.341,1.341,0,0,1,.138-.583.862.862,0,0,1,.326-.4l2.169-1.252a.249.249,0,0,1,.327.023.571.571,0,0,1,.137.424v4.371l2.65-1.531a.25.25,0,0,1,.327.025.562.562,0,0,1,.138.423v2.676a1.345,1.345,0,0,1-.138.582.867.867,0,0,1-.327.4Z" transform="translate(-25.633 -24.875)"/><path class="cls-37" d="M90.849,184.805v4.372a1.358,1.358,0,0,1-.137.582.874.874,0,0,1-.328.4l-2.168,1.252a.248.248,0,0,1-.326-.023.562.562,0,0,1-.138-.424v-4.372l-2.668,1.54a.247.247,0,0,1-.326-.023.563.563,0,0,1-.137-.424v-2.675a1.347,1.347,0,0,1,.137-.583.871.871,0,0,1,.326-.4l2.668-1.54v-4.371a1.341,1.341,0,0,1,.138-.583.867.867,0,0,1,.326-.4l2.168-1.252a.25.25,0,0,1,.328.023.571.571,0,0,1,.137.424V180.7l2.65-1.531a.25.25,0,0,1,.327.025.562.562,0,0,1,.137.423v2.676a1.343,1.343,0,0,1-.137.582.861.861,0,0,1-.327.4Z" transform="translate(-25.633 -24.875)"/></g></g></svg>